<svg width="109" height="109" viewBox="0 0 109 109" fill="none" xmlns="http://www.w3.org/2000/svg">
<path fill-rule="evenodd" clip-rule="evenodd" d="M7.03226 0.0425781L80.2317 0L81.6807 0.596094C82.4692 0.91543 83.4921 1.46895 83.9609 1.83086C84.4297 2.19277 85.1116 2.87402 85.4952 3.32109C85.8575 3.76816 86.4328 4.72617 87.3705 6.70605L87.4344 31.7846C87.477 53.8826 87.5197 56.8418 87.7967 56.8418C87.9672 56.8418 89.0113 57.225 90.0981 57.6934C91.1636 58.1617 92.1439 58.5449 92.2718 58.5449C92.3996 58.5449 93.0389 58.0127 93.7208 57.374C94.7437 56.3734 95.0633 56.2031 95.7453 56.2031C96.4911 56.2031 96.7681 56.4373 100.625 60.3119C104.504 64.1652 104.738 64.442 104.738 65.1871C104.738 65.8896 104.568 66.1877 103.523 67.2947C102.373 68.5082 102.309 68.6146 102.543 69.1469C102.671 69.4662 103.033 70.3391 103.353 71.1055C103.651 71.8719 103.992 72.7021 104.099 72.9789C104.291 73.4047 104.461 73.4473 105.91 73.4473C106.784 73.4473 107.7 73.5324 107.935 73.6602C108.169 73.7879 108.51 74.1711 108.68 74.5117C108.936 75.0227 109 76.1723 109 80.4727C109 83.9641 108.915 85.9652 108.766 86.2846C108.638 86.54 108.318 86.9232 108.062 87.1148C107.721 87.3916 107.21 87.498 105.974 87.498C104.461 87.498 104.291 87.5406 104.099 87.9877C103.992 88.2432 103.651 89.0734 103.353 89.8398C103.033 90.6062 102.671 91.4791 102.543 91.7984C102.309 92.3307 102.373 92.4371 103.523 93.6506C104.568 94.7576 104.738 95.0557 104.738 95.7582C104.738 96.5033 104.482 96.7801 100.732 100.548C97.173 104.104 96.6616 104.572 95.8944 104.678C95.0847 104.806 94.9781 104.763 93.6995 103.55C92.4209 102.379 92.3144 102.315 91.7816 102.549C91.462 102.677 90.3965 103.124 87.5836 104.274L87.541 105.998C87.477 107.616 87.4344 107.765 86.1558 109H74.6911L74.0518 108.361C73.4551 107.765 73.4125 107.637 73.4125 106.02C73.4125 104.465 73.3699 104.295 72.9224 104.104C72.6667 103.997 71.8356 103.656 71.0684 103.358C70.3013 103.039 69.4276 102.677 69.1079 102.549C68.5752 102.315 68.4686 102.379 67.254 103.529C66.1459 104.572 65.8475 104.742 65.1443 104.742C64.3984 104.742 64.1214 104.508 60.2643 100.633C56.3859 96.7801 56.1515 96.5033 56.1515 95.7582C56.1515 95.0557 56.322 94.7576 57.3662 93.6506C58.5169 92.4371 58.5808 92.3307 58.3464 91.7984C58.2186 91.4791 57.8563 90.6062 57.5367 89.8398C57.2383 89.0734 56.8974 88.2432 56.7908 87.9877C56.599 87.5406 56.4285 87.498 54.9795 87.498C54.1058 87.498 53.1894 87.4129 52.955 87.2852C52.7206 87.1574 52.3797 86.7742 52.2092 86.4336C51.9535 85.9227 51.8895 84.8582 51.8895 76.6406L36.7169 76.5342L36.2055 75.9594C35.8432 75.5336 35.694 75.1078 35.694 74.5117C35.694 73.9156 35.8432 73.4898 36.7169 72.4893L57.0252 72.2764L57.7498 70.5732C58.1546 69.6365 58.4956 68.785 58.4956 68.6572C58.4956 68.5295 57.9629 67.8908 57.3236 67.2309C56.322 66.1877 56.1515 65.8684 56.1515 65.2084C56.1515 64.442 56.3859 64.1652 60.2643 60.3119C64.1214 56.4586 64.4197 56.2031 65.1656 56.2031C65.8262 56.2031 66.1459 56.3947 67.254 57.4379C68.4686 58.5662 68.5752 58.6301 69.1079 58.3959C69.4276 58.2682 70.3013 57.9062 71.0684 57.5869C71.8356 57.2889 72.6667 56.9482 72.9437 56.8418C73.3699 56.6502 73.4125 56.4799 73.4125 55.0322C73.4125 54.1594 73.4978 53.2439 73.6256 53.0098C73.7535 52.7756 74.137 52.435 74.478 52.2646C74.9894 52.0092 75.991 51.9453 83.2151 51.9453V22.9922H4.15543L4.13412 68.6572L4.7521 69.8281C5.19961 70.701 5.62581 71.1693 7.41584 72.2764L19.4985 72.4893L20.0526 73.0215C20.4788 73.4473 20.6066 73.7666 20.6066 74.5117C20.6066 75.3207 20.5001 75.5549 19.2854 76.6406L13.0416 76.5768C7.16012 76.5342 6.75523 76.4916 5.64712 76.0445C5.00782 75.7891 4.02757 75.2355 3.47351 74.8311C2.89814 74.4266 2.10968 73.6389 1.70479 73.0854C1.2999 72.5105 0.745846 71.5312 0 69.7217V6.91895L0.490127 5.74805C0.745846 5.10938 1.2999 4.13008 1.70479 3.57656C2.10968 3.00176 2.87683 2.23535 3.40958 1.87344C3.94233 1.49023 4.9652 0.91543 5.68974 0.596094L7.03226 0.0425781ZM6.79785 4.8752C6.20117 5.21582 5.45533 5.89707 5.00782 6.49316L4.26197 7.53633L4.15543 18.7557H83.2151L83.2364 8.00469C82.1922 5.93965 81.7873 5.51387 80.9988 5.02422L79.9547 4.38555L7.86334 4.2791L6.79785 4.8752ZM77.6745 57.5018C77.6745 58.2043 77.5253 59.0559 77.3548 59.4178C77.1204 59.8436 76.7582 60.1416 76.1189 60.3545C75.6287 60.5248 74.6911 60.8229 74.0518 61.0145C73.3912 61.2061 71.9634 61.8447 70.8553 62.4195C69.6194 63.0582 68.5539 63.4627 68.1277 63.4627C67.5949 63.4627 67.19 63.2072 66.3163 62.3982L65.2082 61.3338L61.2872 65.2723C63.1412 67.2522 63.3969 67.6566 63.3969 68.1889C63.3969 68.6146 62.992 69.6791 62.3527 70.9139C61.7773 72.0209 61.138 73.4473 60.9462 74.1072C60.7544 74.7459 60.4561 75.6826 60.2856 76.1723C60.0725 76.8109 59.7955 77.1729 59.348 77.407C58.9857 77.5773 58.1333 77.7264 57.4301 77.7264H56.1515V83.2615C58.1333 83.2615 58.9857 83.3893 59.348 83.5809C59.7955 83.7938 60.0725 84.1769 60.2856 84.7943C60.4561 85.3053 60.7544 86.2207 60.9462 86.8807C61.138 87.5193 61.7773 88.9457 62.3527 90.074C62.992 91.2875 63.3969 92.352 63.3969 92.7777C63.3969 93.31 63.1412 93.7357 62.3314 94.5873L61.2659 95.7156L65.2082 99.6328C67.19 97.7594 67.5949 97.5252 68.1277 97.5039C68.5539 97.5039 69.6194 97.9084 70.8553 98.5684C71.9634 99.1432 73.583 99.8244 74.478 100.08C75.3517 100.357 76.332 100.697 76.6516 100.846C77.0139 101.017 77.3335 101.421 77.4614 101.826C77.5892 102.209 77.6745 103.018 77.6745 103.635V104.763H83.2151C83.2151 102.762 83.3429 101.911 83.5347 101.57C83.7478 101.123 84.1314 100.825 84.7494 100.612C85.2608 100.442 86.1771 100.144 86.8377 99.9521C87.477 99.7605 88.9048 99.1219 90.0342 98.5471C91.2489 97.9297 92.3357 97.5039 92.7406 97.5039C93.2733 97.5252 93.6995 97.7594 94.5519 98.5684L95.6813 99.6328L99.6023 95.7156C97.7271 93.7357 97.4927 93.31 97.4927 92.7777C97.4714 92.352 97.8976 91.2875 98.5155 90.074C99.0909 88.9457 99.7302 87.5193 99.922 86.8807C100.114 86.2207 100.412 85.3053 100.583 84.7943C100.796 84.1769 101.094 83.7938 101.542 83.5809C101.883 83.3893 102.735 83.2615 103.459 83.2615H104.738V77.7264C102.735 77.7264 101.883 77.5773 101.542 77.407C101.094 77.1729 100.796 76.8109 100.583 76.1723C100.412 75.6826 100.114 74.7459 99.922 74.1072C99.7302 73.4473 99.0909 72.0209 98.5155 70.9139C97.8976 69.6791 97.4714 68.6146 97.4927 68.1889C97.4927 67.6566 97.7271 67.2521 98.5368 66.3793L99.6023 65.2723L95.6813 61.3551C93.6995 63.2072 93.2733 63.4627 92.7406 63.4627C92.3357 63.4627 91.2489 63.0582 90.0342 62.4195C88.9048 61.8447 87.477 61.2061 86.8377 61.0145C86.1771 60.8229 85.2608 60.5248 84.7494 60.3545C84.1314 60.1416 83.7478 59.8436 83.5347 59.4178C83.3429 59.0559 83.2151 58.2043 83.2151 57.5018V56.2244H77.6745V57.5018ZM38.2512 29.0383C39.1889 29.0809 39.9986 29.2725 40.8084 29.6557C41.5329 29.9963 42.364 30.635 43.0033 31.3375C43.6 31.9975 44.1754 32.9342 44.3885 33.5516C44.6868 34.4244 44.7507 35.4676 44.7507 39.6189C44.7507 43.7703 44.6868 44.7922 44.3885 45.6863C44.1754 46.3037 43.6 47.2191 43.0033 47.8791C42.3853 48.5603 41.5116 49.2416 40.8084 49.5822C39.8282 50.0506 39.338 50.157 37.9316 50.157C36.6743 50.1357 35.9711 50.0293 35.2678 49.71C34.7351 49.4758 33.8401 48.8584 33.2647 48.3262C32.7107 47.8152 31.9861 46.8572 31.1124 45.0477V39.6189C31.1124 34.5734 31.1337 34.1051 31.5386 33.2322C31.7943 32.7 32.3697 31.8484 32.8172 31.3375C33.286 30.8266 33.9892 30.2092 34.4154 29.975C34.8203 29.7195 35.5449 29.4002 36.0137 29.2512C36.4825 29.1021 37.4841 28.9957 38.2512 29.0383ZM35.5875 34.8289C35.3318 35.4037 35.2678 36.4895 35.2678 39.6189C35.2678 42.7271 35.3318 43.8342 35.5875 44.409C35.758 44.8135 36.2055 45.3457 36.5891 45.5799C36.9726 45.8141 37.5693 46.0057 37.9316 46.0057C38.2725 46.0057 38.8692 45.8141 39.2528 45.5799C39.6364 45.3457 40.0839 44.8135 40.2757 44.409C40.5101 43.8342 40.5953 42.7271 40.5953 39.6189C40.5953 36.4895 40.5101 35.4037 40.2757 34.8289C40.0839 34.4031 39.6364 33.8922 39.2528 33.658C38.8692 33.4238 38.2725 33.2322 37.9316 33.2322C37.5693 33.2322 36.9726 33.4238 36.5891 33.658C36.2055 33.8922 35.758 34.4031 35.5875 34.8289ZM21.0968 29.7195C21.5656 29.7621 22.1623 29.9537 22.418 30.1453C22.695 30.3156 23.0999 30.7627 23.3343 31.1459C23.7179 31.7846 23.7605 32.2104 23.7392 41.0027L24.549 41.3647C24.9965 41.5563 25.4653 41.9607 25.6145 42.2588C25.7636 42.5568 25.8915 43.0678 25.8915 43.3871C25.8915 43.7064 25.721 44.2174 25.5079 44.4941C25.3161 44.7922 24.826 45.1328 23.7605 45.5799V47.283C23.7605 48.7307 23.6966 49.05 23.2704 49.5184C22.972 49.8803 22.5032 50.1145 21.9492 50.1783C21.2886 50.2635 20.9476 50.1996 20.5001 49.859C20.1805 49.6035 19.8182 49.05 19.7116 48.6029C19.5838 48.1772 19.4985 47.2617 19.4985 45.367H16.089C12.8499 45.367 12.6368 45.3457 12.1253 44.8773C11.827 44.6219 11.5286 44.0684 11.4647 43.6639C11.3369 42.9826 11.6352 42.3652 14.7464 36.9578C16.643 33.6793 18.4117 30.784 18.6888 30.5285C18.9445 30.273 19.4133 29.9537 19.7116 29.826C19.9887 29.7195 20.628 29.6557 21.0968 29.7195ZM17.4102 40.9389C17.3889 41.024 17.8364 41.1092 18.433 41.1092H19.4985C19.4985 38.299 19.4559 37.49 19.392 37.49C19.3494 37.49 18.9019 38.2139 18.3904 39.1293C17.879 40.0234 17.4528 40.8537 17.4102 40.9389ZM59.348 29.6131C59.625 29.6131 60.2004 29.7834 60.6266 29.9963C61.0315 30.2092 61.5855 30.7627 61.8413 31.2311C62.2888 32.0187 62.3101 32.2955 62.3314 41.1092L62.8854 41.2582C63.2051 41.3434 63.6952 41.684 63.9509 42.0033C64.228 42.3227 64.4624 42.8549 64.4624 43.1742C64.4624 43.4936 64.2706 44.0684 64.0362 44.4516C63.7805 44.8773 63.3543 45.218 62.3101 45.4734V47.1766C62.3101 48.4752 62.2248 48.9861 61.9478 49.3268C61.756 49.5822 61.3724 49.8803 61.0954 50.0293C60.8397 50.157 60.3709 50.2635 60.0938 50.2635C59.7955 50.2635 59.2415 49.9867 58.8579 49.6461C58.1973 49.0287 58.176 48.9436 58.0694 45.367H51.2502L50.611 44.7283C50.1421 44.26 49.9717 43.8768 49.9717 43.3445C49.9717 42.7697 50.7175 41.3008 53.1894 37.0004C54.9795 33.9348 56.6203 31.1246 56.8761 30.784C57.1318 30.4434 57.6645 30.0389 58.0694 29.8898C58.4743 29.7408 59.0497 29.6131 59.348 29.6131ZM56.0663 40.726C55.9597 41.0453 56.0876 41.1092 57.0039 41.1092H58.0694C58.0694 38.299 58.0268 37.49 57.9629 37.49C57.9202 37.49 57.494 38.1287 57.0252 38.9164C56.5564 39.7041 56.1302 40.5344 56.0663 40.726ZM28.0651 56.4373C41.4264 56.4373 43.6639 56.4799 44.218 56.7566C44.5589 56.927 44.9425 57.2676 45.0704 57.5018C45.1769 57.7359 45.2835 58.2043 45.2835 58.5662C45.2835 58.9068 45.1769 59.3965 45.0704 59.6307C44.9425 59.8648 44.5589 60.1842 44.218 60.3758C43.6639 60.6525 41.4264 60.6951 28.129 60.6951C16.1955 60.6951 12.5515 60.6312 12.1253 60.4184C11.8057 60.2693 11.4221 59.8861 11.2729 59.5668C11.1024 59.2475 10.9746 58.7791 10.9746 58.5023C10.9746 58.2469 11.1238 57.7998 11.3155 57.523C11.5073 57.2463 11.8483 56.8844 12.104 56.7354C12.4876 56.5012 15.5775 56.4373 28.0651 56.4373ZM28.2782 72.4041C28.6405 72.4041 29.1306 72.6383 29.5355 72.9789C30.0895 73.4686 30.1961 73.724 30.1961 74.533C30.1961 75.342 30.0895 75.5762 29.4716 76.1084C28.8749 76.6193 28.6405 76.7045 27.9159 76.598C27.3619 76.5129 26.8931 76.2787 26.5734 75.9168C26.2751 75.5762 26.1046 75.1078 26.1046 74.5756C26.1046 74.1498 26.2538 73.5537 26.4456 73.277C26.6373 73.0215 26.9783 72.7021 27.234 72.617C27.4897 72.5106 27.9586 72.4254 28.2782 72.4041ZM11.4434 9.38848C11.8412 9.38848 12.2887 9.63685 12.7859 10.1336C13.2974 10.6445 13.5318 11.0703 13.5318 11.5174C13.5318 11.9432 13.2974 12.3902 12.8072 12.9012C12.3384 13.3695 11.8696 13.6463 11.5286 13.6463C11.209 13.6463 10.7189 13.5186 10.4205 13.3695C10.1009 13.2205 9.7173 12.8373 9.56813 12.518C9.39765 12.1986 9.2698 11.7303 9.2698 11.4535C9.2698 11.198 9.41896 10.751 9.61075 10.4742C9.80254 10.1975 10.1435 9.83555 10.3992 9.68652C10.6549 9.51621 11.1238 9.38848 11.4434 9.38848ZM21.9492 9.45234C22.5032 9.5375 22.972 9.75039 23.2704 10.1123C23.59 10.4742 23.7605 10.9426 23.7605 11.4535C23.7605 11.9432 23.59 12.4967 23.3343 12.8373C23.0786 13.1779 22.6098 13.476 22.2049 13.5611C21.8 13.625 21.2459 13.5611 20.8837 13.3908C20.5001 13.2205 20.0952 12.7734 19.8608 12.3051C19.5412 11.6238 19.5412 11.4109 19.7756 10.8148C19.9247 10.4316 20.287 9.96328 20.564 9.75039C20.9476 9.45234 21.3312 9.38848 21.9492 9.45234ZM32.0074 9.38848C32.2845 9.38848 32.7533 9.51621 33.0729 9.68652C33.3926 9.83555 33.7761 10.2188 33.9253 10.5381C34.0745 10.8361 34.2023 11.2832 34.2023 11.5174C34.2023 11.7516 34.0745 12.1986 33.904 12.518C33.7335 12.8373 33.35 13.2205 33.0516 13.3695C32.7533 13.5186 32.3058 13.6463 32.0714 13.6463C31.837 13.6463 31.3894 13.5186 31.0911 13.3695C30.7715 13.2205 30.3879 12.8373 30.2387 12.518C30.0682 12.1986 29.9404 11.7303 29.9404 11.4535C29.9404 11.198 30.0895 10.751 30.2813 10.4742C30.4731 10.1975 30.8141 9.83555 31.0698 9.68652C31.3255 9.51621 31.7517 9.38848 32.0074 9.38848ZM71.9208 9.38848L72.6027 10.0059C73.1781 10.5168 73.306 10.7723 73.306 11.5174C73.306 12.2412 73.1781 12.4967 71.9208 13.6463L45.454 13.5398L44.9425 12.9437C44.6016 12.5605 44.4311 12.1135 44.4311 11.56C44.4311 11.1342 44.5803 10.5381 44.772 10.2613C44.9638 10.0059 45.3048 9.68652 45.5605 9.60137C45.8162 9.49492 51.8469 9.40977 71.9208 9.38848ZM80.9775 66.5283C82.5545 66.5709 83.5347 66.7412 84.8133 67.167C85.7509 67.4863 87.0935 68.1037 87.7967 68.5295C88.4999 68.9553 89.6506 69.8707 90.3539 70.5732C91.0571 71.2971 92.016 72.4893 92.4635 73.2557C92.911 74.0008 93.529 75.342 93.8274 76.2361C94.2962 77.6199 94.3814 78.1734 94.3814 80.4939C94.3814 82.8145 94.2962 83.3467 93.8274 84.7518C93.529 85.6246 92.911 86.9658 92.4635 87.7322C92.016 88.4773 91.0571 89.6908 90.3539 90.3934C89.6506 91.0959 88.4999 92.0326 87.7967 92.4584C87.0935 92.8842 85.7509 93.5016 84.8133 93.8209C83.3003 94.3531 82.8102 94.417 80.4448 94.417C78.122 94.417 77.5679 94.3318 76.1828 93.8635C75.2878 93.5441 73.9453 92.948 73.1994 92.501C72.4323 92.0539 71.2389 91.0959 70.5357 90.3934C69.8111 89.6908 68.8948 88.5412 68.4686 87.8387C68.0424 87.1361 67.4244 85.7949 67.0835 84.8582C66.572 83.3467 66.5081 82.857 66.5081 80.4939C66.5081 78.1309 66.572 77.6412 67.0835 76.1297C67.4244 75.193 68.0424 73.8518 68.4686 73.1492C68.8948 72.4467 69.8111 71.2971 70.5357 70.5732C71.2389 69.8707 72.3896 68.9553 73.0929 68.5508C73.7961 68.125 74.7977 67.6354 75.3304 67.4225C75.8418 67.2096 76.8647 66.8902 77.5679 66.7412C78.3564 66.5496 79.635 66.4645 80.9775 66.5283ZM75.437 72.1061C74.8403 72.4893 73.8813 73.2982 73.2847 73.9156C72.688 74.5543 71.9634 75.5762 71.6438 76.2361C71.3242 76.8748 70.9619 78.067 70.8127 78.8973C70.5996 80.0682 70.5996 80.7281 70.8127 81.9842C70.9619 82.857 71.3455 84.1344 71.7077 84.8582C72.0487 85.5607 72.7519 86.5613 73.242 87.0723C73.7535 87.5832 74.7337 88.3709 75.437 88.818C76.2254 89.3502 77.2483 89.776 78.1433 89.9676C78.9318 90.1379 79.9973 90.2869 80.4874 90.2869C80.9988 90.2656 82.0217 90.1166 82.7889 89.9463C83.5347 89.776 84.6428 89.3502 85.2395 89.0096C85.8149 88.6689 86.7951 87.8812 87.4131 87.2639C88.0311 86.6465 88.8195 85.5607 89.1818 84.8582C89.5228 84.1557 89.9277 82.857 90.0768 81.9842C90.2686 80.7281 90.2686 80.0682 90.0768 78.8973C89.9277 78.067 89.5441 76.8748 89.2458 76.2361C88.9261 75.5762 88.1376 74.4904 87.477 73.8092C86.8377 73.1279 85.8149 72.2977 85.2395 71.957C84.6428 71.6377 83.5347 71.2119 82.7889 71.0203C82.0217 70.85 80.9136 70.701 80.3382 70.701C79.7415 70.7223 78.6334 70.8713 77.8876 71.0842C77.1204 71.2758 76.0123 71.7441 75.437 72.1061Z" fill="#9B9B9B"/>
</svg>
