<svg width="223" height="27" viewBox="0 0 223 27" fill="none" xmlns="http://www.w3.org/2000/svg">
<path d="M5.355 10.4389C5.68167 10.6256 6.00833 10.8356 6.335 11.0689C6.685 11.2789 7.02333 11.5122 7.35 11.7689L7.56 11.1739C7.23333 10.8706 6.93 10.6256 6.65 10.4389C6.39333 10.2289 6.06667 10.0189 5.67 9.80889L5.88 9.35389C6.20667 9.54055 6.51 9.73889 6.79 9.94889C7.09333 10.1356 7.40833 10.3806 7.735 10.6839L10.465 2.59889L8.785 0.498887H16.835L15.05 2.59889L18.27 11.6639L19.075 11.1739L16.065 2.84389L17.5 1.02389L17.885 1.40889L16.66 2.94889L19.53 10.9639L20.51 10.5439L21.455 13.1689C21.035 13.2622 20.6267 13.3789 20.23 13.5189C19.8567 13.6356 19.4833 13.7872 19.11 13.9739L21.945 21.7789L24.64 23.9839H15.4L17.85 21.7789L16.38 17.6489C15.8433 18.1156 15.33 18.6522 14.84 19.2589C14.3733 19.8656 13.9767 20.4489 13.65 21.0089L13.16 20.7639C13.5567 20.1572 14 19.5389 14.49 18.9089C14.98 18.2556 15.5283 17.6606 16.135 17.1239L15.82 16.2139C15.2133 16.7972 14.63 17.4389 14.07 18.1389C13.51 18.8156 12.985 19.5389 12.495 20.3089C12.005 19.5389 11.48 18.7922 10.92 18.0689C10.36 17.3456 9.75333 16.6806 9.1 16.0739L8.68 17.1589C8.49333 17.6256 8.34167 18.1389 8.225 18.6989C8.10833 19.2356 8.05 19.7839 8.05 20.3439C8.05 21.0672 8.295 21.7322 8.785 22.3389C9.275 22.9222 9.835 23.4472 10.465 23.9139L9.45 25.3489H0.98L0.49 24.8239H9.17L9.8 23.9839C9.24 23.5872 8.715 23.0972 8.225 22.5139C7.75833 21.9306 7.525 21.2072 7.525 20.3439C7.525 19.6439 7.595 19.0022 7.735 18.4189C7.89833 17.8356 8.085 17.2756 8.295 16.7389L8.68 15.6889L7.98 15.1289L7.525 16.4939C7.26833 17.1706 7.07 17.8356 6.93 18.4889C6.79 19.1422 6.72 19.7256 6.72 20.2389C6.72 21.0556 6.88333 21.7206 7.21 22.2339C7.53667 22.7472 8.02667 23.2839 8.68 23.8439V23.9839H0V23.8789C1.51667 22.8522 2.765 21.6156 3.745 20.1689C4.725 18.7222 5.55333 17.0189 6.23 15.0589L6.545 14.1489C5.72833 13.6822 4.94667 13.3322 4.2 13.0989L5.355 10.4389ZM12.95 16.1089C13.5567 15.3622 14.245 14.6389 15.015 13.9389L12.355 6.48389L10.255 12.6439C10.6517 13.0172 11.095 13.5306 11.585 14.1839C12.0983 14.8139 12.5533 15.4556 12.95 16.1089ZM23.24 21.1839L26.425 23.8439L25.55 25.3489H16.415L15.925 24.8239H25.2L25.725 23.9839L22.785 21.4989L20.23 14.3939C20.5567 14.2072 20.9417 14.0789 21.385 14.0089C21.8283 13.9389 22.2133 13.8806 22.54 13.8339C22.12 12.8772 21.7583 11.8972 21.455 10.8939L22.085 11.0689C22.2483 11.5822 22.4233 12.1072 22.61 12.6439C22.82 13.1806 23.0533 13.7406 23.31 14.3239C22.9133 14.3239 22.4933 14.3472 22.05 14.3939C21.63 14.4406 21.2567 14.5456 20.93 14.7089L23.24 21.1839ZM12.215 17.1589C12.285 17.0422 12.3433 16.9372 12.39 16.8439C12.46 16.7506 12.5417 16.6456 12.635 16.5289C12.215 15.8056 11.7133 15.1056 11.13 14.4289C10.57 13.7289 10.08 13.1806 9.66 12.7839L12.075 5.74889L11.62 4.55889L8.75 12.9239C10.1267 14.2072 11.2817 15.6189 12.215 17.1589ZM131.375 12.1889C131.375 14.3589 131.107 16.1906 130.57 17.6839C130.034 19.1772 129.275 20.3906 128.295 21.3239C127.339 22.2572 126.172 22.9339 124.795 23.3539C123.442 23.7739 121.925 23.9839 120.245 23.9839H110.69L113.35 21.6039V2.94889L110.69 0.498887H120.245C127.665 0.498887 131.375 4.39555 131.375 12.1889ZM132.915 12.5389C132.915 14.8022 132.647 16.7389 132.11 18.3489C131.597 19.9589 130.815 21.2889 129.765 22.3389C128.715 23.3656 127.397 24.1239 125.81 24.6139C124.224 25.1039 122.369 25.3489 120.245 25.3489H112.23L111.53 24.8239H120.245C122.299 24.8239 124.084 24.5906 125.6 24.1239C127.117 23.6572 128.377 22.9339 129.38 21.9539C130.384 20.9506 131.13 19.6789 131.62 18.1389C132.134 16.5756 132.39 14.7089 132.39 12.5389C132.39 11.6756 132.32 10.8122 132.18 9.94889C132.064 9.06222 131.877 8.22222 131.62 7.42889C131.364 6.63555 131.049 5.90055 130.675 5.22389C130.302 4.52389 129.882 3.91722 129.415 3.40389L129.59 3.33389C130.104 3.77722 130.559 4.33722 130.955 5.01388C131.375 5.66722 131.725 6.40222 132.005 7.21889C132.309 8.01222 132.53 8.86389 132.67 9.77389C132.834 10.6839 132.915 11.6056 132.915 12.5389ZM127.28 12.1539C127.28 8.81722 126.709 6.34389 125.565 4.73389C124.422 3.10055 122.544 2.28389 119.93 2.28389H117.095V22.1989H117.935V3.12389H120.63C121.004 3.12389 121.389 3.14722 121.785 3.19389C122.182 3.24055 122.567 3.33389 122.94 3.47389C123.337 3.59055 123.699 3.76555 124.025 3.99889C124.352 4.23222 124.62 4.53555 124.83 4.90889L124.725 5.01388C124.469 4.71055 124.165 4.47722 123.815 4.31389C123.489 4.12722 123.139 3.98722 122.765 3.89389C122.392 3.80055 122.019 3.74222 121.645 3.71888C121.272 3.67222 120.934 3.64889 120.63 3.64889H118.46V22.1989H119.93C121.33 22.1989 122.497 21.9656 123.43 21.4989C124.387 21.0089 125.145 20.3322 125.705 19.4689C126.289 18.5822 126.697 17.5206 126.93 16.2839C127.164 15.0472 127.28 13.6706 127.28 12.1539Z" fill="#EA5544"/>
<path d="M48.6377 1.40889C48.2177 1.64222 47.8677 1.89889 47.5877 2.17889C47.331 2.45889 47.121 2.78555 46.9577 3.15889C46.8177 3.53222 46.7244 3.96389 46.6777 4.45389C46.631 4.92055 46.6077 5.46889 46.6077 6.09889V25.3489H43.0377L42.5127 24.8239H46.0827V6.09889C46.0827 5.58555 46.0944 5.07222 46.1177 4.55889C46.1644 4.04555 46.2577 3.56722 46.3977 3.12389C46.561 2.68055 46.7944 2.28389 47.0977 1.93388C47.4244 1.58389 47.856 1.31555 48.3927 1.12888L48.6377 1.40889ZM47.7977 0.498887C47.191 0.778886 46.7127 1.12889 46.3627 1.54889C46.0127 1.96889 45.756 2.43555 45.5927 2.94889C45.4294 3.46222 45.3244 3.98722 45.2777 4.52388C45.2544 5.06055 45.2427 5.58555 45.2427 6.09889V23.9839H41.8477L33.2027 7.46389V19.0839C33.2027 20.0639 33.2844 20.8456 33.4477 21.4289C33.611 21.9889 33.8327 22.4322 34.1127 22.7589C34.3927 23.0622 34.7194 23.2956 35.0927 23.4589C35.466 23.6222 35.851 23.7972 36.2477 23.9839L35.4077 25.3489H28.6877L28.1627 24.8239H35.0927L35.5127 24.1589C35.046 23.9956 34.6377 23.8089 34.2877 23.5989C33.9377 23.3889 33.646 23.1089 33.4127 22.7589C33.1794 22.4089 32.9927 21.9422 32.8527 21.3589C32.736 20.7756 32.6777 20.0172 32.6777 19.0839V6.44889L32.0127 5.29389H31.8377V18.3839C31.8377 18.8972 31.8494 19.4222 31.8727 19.9589C31.9194 20.4956 32.0244 21.0206 32.1877 21.5339C32.351 22.0472 32.6077 22.5139 32.9577 22.9339C33.3077 23.3539 33.786 23.7039 34.3927 23.9839H27.4627C28.4427 23.4239 29.131 22.6889 29.5277 21.7789C29.9244 20.8689 30.1227 19.7489 30.1227 18.4189V2.94889L27.4627 0.498887H37.0527L34.7427 2.56389L43.5277 19.3289V17.4389L35.7927 2.73888L37.6477 1.12888L37.9627 1.51389L36.4227 2.87889L43.5277 16.3539V6.02889C43.5277 4.67555 43.3294 3.55555 42.9327 2.66889C42.536 1.78222 41.8477 1.05889 40.8677 0.498887H47.7977ZM71.2395 0.498887C70.7728 1.36222 70.3178 2.30722 69.8745 3.33389C69.4312 4.36055 69.0578 5.35222 68.7545 6.30889C68.6145 5.35222 68.3462 4.60555 67.9495 4.06889C67.5762 3.53222 67.0978 3.13555 66.5145 2.87889C65.9545 2.59889 65.3128 2.43555 64.5895 2.38889C63.8662 2.31889 63.1078 2.28389 62.3145 2.28389V21.6039L65.0095 23.9839H55.9095L58.5695 21.6039V3.64889C57.6828 3.64889 56.9362 3.68389 56.3295 3.75389C55.7462 3.82389 55.2562 3.98722 54.8595 4.24389C54.4628 4.47722 54.1478 4.83889 53.9145 5.32888C53.6812 5.79555 53.4828 6.42555 53.3195 7.21889L52.8995 6.97389C53.0395 6.11055 53.2495 5.42222 53.5295 4.90889C53.8328 4.39555 54.2062 4.01055 54.6495 3.75389C55.1162 3.49722 55.6645 3.33389 56.2945 3.26389C56.9478 3.17055 57.7062 3.12389 58.5695 3.12389V2.28389C57.7762 2.28389 57.0178 2.31889 56.2945 2.38889C55.5945 2.43555 54.9528 2.59889 54.3695 2.87889C53.8095 3.13555 53.3312 3.53222 52.9345 4.06889C52.5612 4.60555 52.3045 5.35222 52.1645 6.30889C52.0245 5.88889 51.8495 5.43389 51.6395 4.94389C51.4528 4.43055 51.2428 3.91722 51.0095 3.40389C50.7995 2.89055 50.5778 2.38889 50.3445 1.89889C50.1112 1.38555 49.8895 0.918885 49.6795 0.498887H71.2395ZM72.2895 1.33889C71.7995 2.29555 71.3562 3.21722 70.9595 4.10389C70.5628 4.99055 70.1545 6.01722 69.7345 7.18389L69.2445 6.79889C69.4545 6.28555 69.6528 5.79555 69.8395 5.32888C70.0495 4.83889 70.2478 4.36055 70.4345 3.89389C70.6445 3.40389 70.8662 2.91389 71.0995 2.42388C71.3328 1.91055 71.6128 1.38555 71.9395 0.848886L72.2895 1.33889ZM63.1545 3.15889C64.2978 3.18222 65.3245 3.31055 66.2345 3.54388C67.1678 3.75389 67.8095 4.23222 68.1595 4.97889L67.9145 5.04889C67.5878 4.53555 67.0395 4.18555 66.2695 3.99889C65.5228 3.81222 64.6595 3.69555 63.6795 3.64889V21.3239L66.5145 23.8789L65.5695 25.3489H57.0995L56.5745 24.8239H65.2545L65.8145 23.9839L63.1545 21.5689V3.15889ZM74.8636 25.3489L74.3386 24.8239H83.0186L83.5786 23.9839L80.9186 21.5689V3.33389L83.2986 1.09389L83.6486 1.47889L81.4436 3.54388V21.3239L84.2786 23.8789L83.3336 25.3489H74.8636ZM73.6736 23.9839L76.3336 21.6039V2.94889L73.6736 0.498887H82.7386L80.0786 2.94889V21.6039L82.7386 23.9839H73.6736ZM99.9857 25.3489L99.4257 24.8239H108.456L108.981 23.9839L105.586 21.4639L99.3907 8.89889L101.456 6.27389C101.899 5.69055 102.342 5.15389 102.786 4.66389C103.229 4.17389 103.707 3.73055 104.221 3.33389C104.734 2.91389 105.294 2.52889 105.901 2.17889C106.531 1.82889 107.254 1.51389 108.071 1.23389L108.526 1.61888C107.709 1.92222 106.986 2.24889 106.356 2.59889C105.726 2.92555 105.142 3.29889 104.606 3.71888C104.092 4.11555 103.602 4.57055 103.136 5.08389C102.692 5.57389 102.237 6.11055 101.771 6.69389L99.9857 8.96889L105.971 21.1139L109.646 23.8439L108.771 25.3489H99.9857ZM96.2757 23.8789L95.3307 25.3489H86.7907L86.2657 24.8239H95.0157L95.5757 23.9839L92.9157 21.5689V16.7039L96.2057 12.7139L95.8207 11.8739L92.0757 16.3889V21.6039L94.7357 23.9839H85.6707L88.3307 21.6039V2.94889L85.6707 0.498887H94.7357L92.0757 2.94889V13.8339L92.9157 12.7839V3.33389L95.2957 1.09389L95.6457 1.47889L93.4407 3.54388V12.1539L99.4957 4.87389C99.729 4.61722 99.9157 4.30222 100.056 3.92889C100.219 3.55555 100.301 3.18222 100.301 2.80889C100.301 2.48222 100.219 2.20222 100.056 1.96889C99.9157 1.71222 99.729 1.50222 99.4957 1.33889C99.2624 1.15222 99.0057 1.00055 98.7257 0.883886C98.4457 0.743886 98.189 0.615553 97.9557 0.498887H107.686C106.029 1.10555 104.641 1.91055 103.521 2.91388C102.401 3.89389 101.362 5.00222 100.406 6.23889L98.3757 8.79389L104.676 21.6039L107.966 23.9839H98.7607L100.581 21.6039L96.4507 13.2389L93.4407 16.9139V21.3239L96.2757 23.8789ZM155.168 1.51389C154.398 2.56389 153.768 3.53222 153.278 4.41889C152.812 5.28222 152.392 6.15722 152.018 7.04389L151.563 6.69389C151.703 6.32055 151.89 5.90055 152.123 5.43389C152.357 4.96722 152.613 4.47722 152.893 3.96389C153.173 3.45055 153.477 2.94889 153.803 2.45889C154.153 1.96889 154.503 1.51389 154.853 1.09389L155.168 1.51389ZM149.218 15.7939V7.95389L149.743 8.44389V16.2839L149.218 15.7939ZM134.728 23.9839L137.388 21.5689V13.6239C136.782 13.6239 136.245 13.7756 135.778 14.0789C135.312 14.3822 134.973 14.6856 134.763 14.9889L134.343 14.6739C134.693 14.2539 135.113 13.8922 135.603 13.5889C136.093 13.2856 136.688 13.1222 137.388 13.0989V12.2589C136.782 12.2589 136.152 12.4222 135.498 12.7489C134.868 13.0522 134.355 13.4256 133.958 13.8689C133.958 12.8189 134.273 11.9906 134.903 11.3839C135.557 10.7772 136.385 10.4622 137.388 10.4389V2.94889L134.728 0.498887H154.188C153.512 1.40889 152.917 2.31889 152.403 3.22888C151.89 4.13889 151.377 5.11889 150.863 6.16889C150.607 5.60889 150.338 5.09555 150.058 4.62889C149.802 4.13889 149.487 3.71889 149.113 3.36889C148.74 3.01889 148.285 2.75055 147.748 2.56389C147.235 2.37722 146.593 2.28389 145.823 2.28389H141.133V10.4389H141.973V3.12389H145.823C146.15 3.12389 146.512 3.14722 146.908 3.19389C147.305 3.24055 147.69 3.33389 148.063 3.47389C148.46 3.61389 148.81 3.80055 149.113 4.03388C149.44 4.24388 149.685 4.52389 149.848 4.87389L149.708 4.97889C149.475 4.69889 149.183 4.47722 148.833 4.31389C148.483 4.12722 148.122 3.98722 147.748 3.89389C147.398 3.80055 147.048 3.74222 146.698 3.71888C146.348 3.67222 146.057 3.64889 145.823 3.64889H142.498V10.4389H145.963L148.273 7.42889H148.378V15.2689H148.273L145.963 12.2589H141.133V22.1989H141.973V13.0989H145.963L146.348 13.6239H142.498V22.1989H144.213C145.193 22.1989 146.022 22.1639 146.698 22.0939C147.375 22.0006 147.982 21.8022 148.518 21.4989C149.055 21.1956 149.545 20.7639 149.988 20.2039C150.455 19.6206 150.957 18.8389 151.493 17.8589C151.727 18.5356 151.96 19.1422 152.193 19.6789C152.427 20.1922 152.672 20.6822 152.928 21.1489C153.185 21.6156 153.477 22.0822 153.803 22.5489C154.13 22.9922 154.503 23.4706 154.923 23.9839H134.728ZM155.553 25.3489H135.918L135.463 24.8239H155.238L155.938 24.0189C155.495 23.4822 155.098 22.9922 154.748 22.5489C154.422 22.0822 154.13 21.6389 153.873 21.2189C153.617 20.7756 153.383 20.3322 153.173 19.8889C152.987 19.4456 152.812 18.9672 152.648 18.4539L153.348 18.7339C153.465 19.1072 153.605 19.4806 153.768 19.8539C153.932 20.2039 154.142 20.5889 154.398 21.0089C154.655 21.4289 154.958 21.8839 155.308 22.3739C155.682 22.8639 156.125 23.4239 156.638 24.0539L155.553 25.3489ZM176.134 2.35389C175.714 3.00722 175.224 3.92889 174.664 5.11889C174.128 6.28555 173.556 7.63889 172.949 9.17889L172.529 8.82889C173.043 7.49889 173.556 6.26222 174.069 5.11889C174.583 3.95222 175.154 2.85555 175.784 1.82889L176.134 2.35389ZM175.259 1.05889C174.956 1.57222 174.641 2.13222 174.314 2.73888C173.988 3.34555 173.673 3.96389 173.369 4.59389C173.089 5.22389 172.821 5.84222 172.564 6.44889C172.308 7.03222 172.086 7.56889 171.899 8.05889L171.759 7.98889C171.736 7.28889 171.643 6.57722 171.479 5.85389C171.316 5.13055 171.036 4.46555 170.639 3.85889C170.266 3.25222 169.764 2.76222 169.134 2.38889C168.528 1.99222 167.769 1.79389 166.859 1.79389C165.483 1.79389 164.363 2.16722 163.499 2.91388C162.659 3.66055 162.006 4.57055 161.539 5.64389C161.073 6.71722 160.758 7.86055 160.594 9.07389C160.431 10.2639 160.349 11.3256 160.349 12.2589C160.349 13.5189 160.454 14.7789 160.664 16.0389C160.898 17.2756 161.259 18.3839 161.749 19.3639C162.263 20.3439 162.916 21.1489 163.709 21.7789C164.526 22.3856 165.529 22.6889 166.719 22.6889C167.676 22.6889 168.528 22.5372 169.274 22.2339C170.044 21.9072 170.686 21.4756 171.199 20.9389C171.736 20.3789 172.144 19.7256 172.424 18.9789C172.704 18.2089 172.844 17.3689 172.844 16.4589C172.844 16.2956 172.891 16.1089 172.984 15.8989C173.101 15.6889 173.323 15.5839 173.649 15.5839C173.929 15.5839 174.116 15.7006 174.209 15.9339C174.326 16.1439 174.384 16.3772 174.384 16.6339C174.384 17.8239 174.209 18.8972 173.859 19.8539C173.509 20.8106 172.996 21.6389 172.319 22.3389C171.643 23.0156 170.803 23.5406 169.799 23.9139C168.819 24.2872 167.688 24.4739 166.404 24.4739C164.631 24.4739 163.103 24.1589 161.819 23.5289C160.536 22.8756 159.474 22.0006 158.634 20.9039C157.794 19.7839 157.164 18.4889 156.744 17.0189C156.348 15.5489 156.149 13.9739 156.149 12.2939C156.149 10.5672 156.348 8.95722 156.744 7.46389C157.164 5.97055 157.794 4.67555 158.634 3.57889C159.498 2.45889 160.571 1.58389 161.854 0.953885C163.138 0.323885 164.654 0.00888455 166.404 0.00888455C167.244 0.00888455 167.956 0.102218 168.539 0.288885C169.146 0.452219 169.694 0.638886 170.184 0.848886C170.674 1.03555 171.153 1.22222 171.619 1.40889C172.086 1.57222 172.611 1.65389 173.194 1.65389C173.498 1.65389 173.824 1.59555 174.174 1.47889C174.548 1.36222 174.863 1.21055 175.119 1.02389L175.259 1.05889ZM175.504 17.7189C175.504 18.9556 175.283 20.0756 174.839 21.0789C174.419 22.0822 173.801 22.9339 172.984 23.6339C172.191 24.3339 171.234 24.8706 170.114 25.2439C168.994 25.6406 167.758 25.8389 166.404 25.8389C165.051 25.8389 163.873 25.6522 162.869 25.2789C161.866 24.9056 161.119 24.3689 160.629 23.6689L160.734 23.4939C161.411 24.1006 162.193 24.5556 163.079 24.8589C163.989 25.1622 165.098 25.3139 166.404 25.3139C167.804 25.3139 169.053 25.1039 170.149 24.6839C171.246 24.2639 172.168 23.6806 172.914 22.9339C173.684 22.1639 174.268 21.2539 174.664 20.2039C175.061 19.1306 175.259 17.9406 175.259 16.6339L175.434 16.6689C175.458 16.8556 175.469 17.0306 175.469 17.1939C175.493 17.3572 175.504 17.5322 175.504 17.7189ZM170.184 4.41889C169.741 3.90555 169.216 3.56722 168.609 3.40389C168.026 3.21722 167.478 3.12389 166.964 3.12389C165.868 3.12389 164.981 3.43889 164.304 4.06889C163.628 4.67555 163.091 5.43389 162.694 6.34389C162.321 7.25389 162.064 8.24555 161.924 9.31889C161.784 10.3689 161.714 11.3489 161.714 12.2589C161.714 14.5922 162.064 16.6106 162.764 18.3139C163.488 19.9939 164.421 21.1722 165.564 21.8489L165.459 22.0939C164.759 21.8139 164.141 21.3706 163.604 20.7639C163.068 20.1339 162.624 19.3872 162.274 18.5239C161.924 17.6372 161.656 16.6689 161.469 15.6189C161.283 14.5456 161.189 13.4256 161.189 12.2589C161.189 11.3956 161.259 10.4039 161.399 9.28389C161.539 8.16389 161.819 7.11389 162.239 6.13388C162.659 5.13055 163.243 4.29055 163.989 3.61389C164.736 2.93722 165.728 2.59889 166.964 2.59889C167.664 2.59889 168.329 2.73889 168.959 3.01889C169.589 3.29889 170.079 3.74222 170.429 4.34888L170.184 4.41889ZM199.071 12.2589C199.071 14.0789 198.837 15.8172 198.371 17.4739C197.927 19.1072 197.227 20.5422 196.271 21.7789C195.337 23.0156 194.147 23.9956 192.701 24.7189C191.277 25.4656 189.597 25.8389 187.661 25.8389C186.821 25.8389 186.039 25.7456 185.316 25.5589C184.592 25.3956 183.939 25.1622 183.356 24.8589C182.772 24.5556 182.259 24.2172 181.816 23.8439C181.396 23.4706 181.057 23.0739 180.801 22.6539L180.976 22.5139C181.746 23.3306 182.679 23.9956 183.776 24.5089C184.872 25.0456 186.167 25.3139 187.661 25.3139C189.504 25.3139 191.102 24.9639 192.456 24.2639C193.832 23.5872 194.964 22.6539 195.851 21.4639C196.761 20.2739 197.437 18.8972 197.881 17.3339C198.324 15.7472 198.546 14.0556 198.546 12.2589C198.546 11.0689 198.429 9.94889 198.196 8.89889C197.962 7.82555 197.636 6.84555 197.216 5.95889C196.819 5.07222 196.352 4.27889 195.816 3.57889C195.302 2.85555 194.754 2.26055 194.171 1.79389L194.381 1.68889C195.921 2.66889 197.087 4.08055 197.881 5.92389C198.674 7.74389 199.071 9.85555 199.071 12.2589ZM197.706 12.2589C197.706 13.9856 197.484 15.5956 197.041 17.0889C196.621 18.5589 195.991 19.8422 195.151 20.9389C194.311 22.0356 193.261 22.8989 192.001 23.5289C190.741 24.1589 189.282 24.4739 187.626 24.4739C185.876 24.4739 184.371 24.1472 183.111 23.4939C181.851 22.8406 180.801 21.9656 179.961 20.8689C179.144 19.7489 178.537 18.4539 178.141 16.9839C177.744 15.4906 177.546 13.9156 177.546 12.2589C177.546 10.4856 177.756 8.85222 178.176 7.35889C178.619 5.86555 179.261 4.58222 180.101 3.50889C180.941 2.41222 181.991 1.56055 183.251 0.953885C184.511 0.323885 185.969 0.00888455 187.626 0.00888455C189.446 0.00888455 190.986 0.347218 192.246 1.02389C193.529 1.70055 194.567 2.61055 195.361 3.75389C196.177 4.89722 196.772 6.20389 197.146 7.67389C197.519 9.14389 197.706 10.6722 197.706 12.2589ZM193.471 12.2589C193.471 11.3489 193.377 10.2872 193.191 9.07389C193.027 7.86055 192.724 6.71722 192.281 5.64389C191.861 4.57055 191.266 3.66055 190.496 2.91388C189.749 2.16722 188.792 1.79389 187.626 1.79389C186.832 1.79389 186.132 1.96889 185.526 2.31889C184.942 2.64555 184.429 3.08889 183.986 3.64889C183.566 4.20889 183.204 4.85055 182.901 5.57389C182.621 6.29722 182.399 7.05555 182.236 7.84889C182.072 8.61889 181.956 9.38889 181.886 10.1589C181.816 10.9056 181.781 11.6056 181.781 12.2589C181.781 13.5422 181.886 14.8139 182.096 16.0739C182.306 17.3106 182.644 18.4189 183.111 19.3989C183.601 20.3789 184.207 21.1722 184.931 21.7789C185.677 22.3856 186.576 22.6889 187.626 22.6889C188.652 22.6889 189.527 22.3856 190.251 21.7789C190.997 21.1722 191.604 20.3789 192.071 19.3989C192.561 18.4189 192.911 17.3106 193.121 16.0739C193.354 14.8139 193.471 13.5422 193.471 12.2589ZM191.021 4.62889C190.507 4.09222 189.971 3.71889 189.411 3.50889C188.874 3.27555 188.302 3.15889 187.696 3.15889C186.786 3.15889 186.027 3.49722 185.421 4.17389C184.837 4.85055 184.371 5.66722 184.021 6.62389C183.694 7.55722 183.461 8.54889 183.321 9.59889C183.204 10.6489 183.146 11.5356 183.146 12.2589C183.146 13.3789 183.239 14.4639 183.426 15.5139C183.612 16.5639 183.869 17.5206 184.196 18.3839C184.546 19.2239 184.954 19.9472 185.421 20.5539C185.887 21.1606 186.401 21.5806 186.961 21.8139L186.891 22.0589C186.167 21.8256 185.537 21.4056 185.001 20.7989C184.487 20.1689 184.056 19.4106 183.706 18.5239C183.356 17.6372 183.087 16.6572 182.901 15.5839C182.737 14.5106 182.656 13.4022 182.656 12.2589C182.656 11.7689 182.679 11.1972 182.726 10.5439C182.796 9.89055 182.901 9.21389 183.041 8.51389C183.181 7.79055 183.367 7.07889 183.601 6.37889C183.857 5.67889 184.172 5.06055 184.546 4.52388C184.919 3.96389 185.362 3.52055 185.876 3.19389C186.389 2.84389 186.996 2.66889 187.696 2.66889C188.326 2.66889 188.956 2.82055 189.586 3.12389C190.239 3.40389 190.787 3.87055 191.231 4.52388L191.021 4.62889ZM215.46 13.5189C215.974 14.5456 216.464 15.4556 216.93 16.2489C217.397 17.0422 217.899 17.8122 218.435 18.5589C218.995 19.3056 219.625 20.0872 220.325 20.9039C221.025 21.6972 221.865 22.6189 222.845 23.6689C221.655 23.9956 220.477 24.3572 219.31 24.7539C218.167 25.1506 217.117 25.6639 216.16 26.2939L215.6 26.0139C216.417 25.4772 217.397 24.9756 218.54 24.5089C219.684 24.0656 220.815 23.7156 221.935 23.4589C221.072 22.5489 220.302 21.6972 219.625 20.9039C218.972 20.1106 218.365 19.3289 217.805 18.5589C217.269 17.7656 216.755 16.9372 216.265 16.0739C215.775 15.2106 215.285 14.2539 214.795 13.2039C215.519 12.9706 216.23 12.6672 216.93 12.2939C217.63 11.9206 218.249 11.4656 218.785 10.9289C219.322 10.3922 219.754 9.77389 220.08 9.07389C220.407 8.35055 220.57 7.52222 220.57 6.58889C220.57 5.46889 220.36 4.51222 219.94 3.71888C219.544 2.92555 219.054 2.28389 218.47 1.79389L218.645 1.68889C219.252 2.01555 219.812 2.61055 220.325 3.47389C220.839 4.31389 221.095 5.35222 221.095 6.58889C221.095 7.56889 220.932 8.43222 220.605 9.17889C220.302 9.90222 219.894 10.5439 219.38 11.1039C218.867 11.6406 218.26 12.1072 217.56 12.5039C216.884 12.9006 216.184 13.2389 215.46 13.5189ZM215.495 6.16889C215.495 4.67555 215.099 3.56722 214.305 2.84389C213.535 2.12055 212.415 1.75888 210.945 1.75888C210.199 1.75888 209.452 1.86389 208.705 2.07389C207.959 2.26055 207.34 2.51722 206.85 2.84389V12.1189L207.69 12.0139V3.40389C208.157 3.14722 208.705 2.96055 209.335 2.84389C209.989 2.70389 210.619 2.63389 211.225 2.63389C211.879 2.63389 212.52 2.75055 213.15 2.98389C213.78 3.19389 214.294 3.60222 214.69 4.20889L214.445 4.31389C214.002 3.82389 213.489 3.50889 212.905 3.36889C212.345 3.20555 211.785 3.12389 211.225 3.12389C210.759 3.12389 210.234 3.18222 209.65 3.29889C209.09 3.39222 208.612 3.53222 208.215 3.71888V11.9439C209.055 11.8506 209.907 11.6989 210.77 11.4889C211.634 11.2556 212.415 10.9172 213.115 10.4739C213.815 10.0306 214.387 9.47055 214.83 8.79389C215.274 8.09389 215.495 7.21889 215.495 6.16889ZM207.69 14.6039C208.39 14.5572 209.079 14.4872 209.755 14.3939C210.455 14.2772 211.155 14.1489 211.855 14.0089C211.785 13.8922 211.715 13.7639 211.645 13.6239C211.599 13.4839 211.552 13.3439 211.505 13.2039C210.689 13.3906 209.86 13.5306 209.02 13.6239C208.204 13.7172 207.48 13.7872 206.85 13.8339V21.6039L209.51 23.9839H200.445L203.105 21.6039V15.4439C202.802 15.4672 202.545 15.4906 202.335 15.5139C202.149 15.5372 201.962 15.5606 201.775 15.5839C201.612 15.6072 201.437 15.6422 201.25 15.6889C201.064 15.7122 200.83 15.7472 200.55 15.7939L200.2 15.2689C200.62 15.1989 201.052 15.1406 201.495 15.0939C201.962 15.0239 202.499 14.9656 203.105 14.9189V14.0439C202.662 14.0906 202.184 14.1372 201.67 14.1839C201.18 14.2306 200.667 14.3122 200.13 14.4289L200.935 12.0139C201.099 12.0372 201.285 12.0606 201.495 12.0839C201.705 12.1072 201.915 12.1306 202.125 12.1539C202.335 12.1772 202.522 12.2006 202.685 12.2239C202.872 12.2239 203.012 12.2239 203.105 12.2239V4.17389L200.83 3.05388C201.437 2.54055 202.137 2.09722 202.93 1.72389C203.724 1.35055 204.552 1.03555 205.415 0.778885C206.302 0.522219 207.2 0.335553 208.11 0.218886C209.02 0.078885 209.895 0.00888455 210.735 0.00888455C211.809 0.00888455 212.882 0.102218 213.955 0.288885C215.029 0.452219 215.985 0.778886 216.825 1.26889C217.689 1.75889 218.389 2.42389 218.925 3.26389C219.462 4.10389 219.73 5.18889 219.73 6.51889C219.73 7.35889 219.555 8.11722 219.205 8.79389C218.879 9.44722 218.435 10.0189 217.875 10.5089C217.315 10.9989 216.662 11.4306 215.915 11.8039C215.169 12.1539 214.399 12.4456 213.605 12.6789C214.049 13.7056 214.504 14.6622 214.97 15.5489C215.437 16.4122 215.927 17.2522 216.44 18.0689C216.977 18.8856 217.56 19.7022 218.19 20.5189C218.844 21.3122 219.579 22.1522 220.395 23.0389C219.882 23.1789 219.415 23.3189 218.995 23.4589C218.575 23.5989 218.167 23.7506 217.77 23.9139C217.374 24.0539 216.977 24.2289 216.58 24.4389C216.184 24.6489 215.74 24.8939 215.25 25.1739C215.11 24.3106 214.912 23.4122 214.655 22.4789C214.422 21.5456 214.154 20.6239 213.85 19.7139C213.547 18.7806 213.232 17.8706 212.905 16.9839C212.602 16.0972 212.31 15.2689 212.03 14.4989C211.4 14.6156 210.759 14.7322 210.105 14.8489C209.475 14.9422 208.845 15.0239 208.215 15.0939V21.3239L211.05 23.8789L210.105 25.3489H201.635L201.11 24.8239H209.79L210.35 23.9839L207.69 21.5689V14.6039Z" fill="white"/>
</svg>
