<svg width="44" height="49" viewBox="0 0 44 49" fill="none" xmlns="http://www.w3.org/2000/svg">
<path fill-rule="evenodd" clip-rule="evenodd" d="M16.2026 0H28.9693L26.206 3.3094L28.7759 10.4798C31.2353 17.4295 31.3458 17.6501 31.8709 17.264C32.1748 17.0434 32.3959 16.7676 32.3683 16.6297C32.3406 16.5194 31.3182 13.6237 30.1023 10.204C28.8588 6.78426 27.864 3.91612 27.864 3.77823C27.864 3.66791 28.3337 2.97846 28.8864 2.23384C29.7154 1.15829 30.0194 0.937662 30.2681 1.18587C30.5444 1.43407 30.4063 1.76501 28.693 3.86096L30.9589 10.1764C33.1696 16.2712 33.2802 16.4918 33.8605 16.2436C34.2197 16.1057 34.6066 16.0506 34.7724 16.1333C34.9382 16.216 35.2974 17.0985 35.629 18.1465C35.933 19.1669 36.1541 20.0218 36.0988 20.0218C36.0435 20.0494 35.3803 20.27 34.6342 20.5183C33.8605 20.7665 33.1144 21.0698 32.9486 21.1801C32.6999 21.318 33.2802 23.2209 37.1213 33.6731L39.1385 35.3002C40.2162 36.2103 41.0452 37.0101 40.9347 37.0928C40.8518 37.1755 37.7568 37.2307 34.1092 37.2307C30.4339 37.2307 27.3389 37.148 27.2284 37.0377C27.0902 36.8998 27.7811 36.0724 30.5721 33.5076L29.4667 30.474C28.8588 28.8193 28.3061 27.3853 28.2508 27.3025C28.1956 27.2198 27.7534 27.5231 27.2837 27.992C26.8139 28.4608 25.8743 29.5915 25.2111 30.5568C24.5479 31.4944 23.9124 32.2666 23.7742 32.2666C23.6637 32.2666 23.4978 32.1839 23.3873 32.0736C23.2768 31.9357 23.6637 31.1635 24.2716 30.3361C24.8519 29.5088 25.9296 28.2402 26.6205 27.5231C27.5047 26.5855 27.8363 26.0339 27.7258 25.6478C27.6429 25.3445 27.4495 25.0963 27.3113 25.0963C27.1731 25.0963 26.4547 25.7581 25.7638 26.5579C25.0453 27.3301 23.9676 28.709 23.332 29.5915C22.7241 30.4464 22.1438 31.1635 22.0609 31.1635C21.978 31.1635 21.5911 30.6395 21.1766 29.9776C20.7621 29.3433 19.6844 27.9092 18.7725 26.8337C17.8329 25.7306 17.0039 24.8205 16.8658 24.8205C16.7552 24.7929 16.092 26.4476 15.3459 28.4608C14.6274 30.474 13.8537 33.0664 13.605 34.1971C13.3563 35.3278 13.2457 36.7067 13.3287 37.2307C13.4392 37.7547 13.7708 38.7475 14.13 39.4094C14.4616 40.0713 15.6499 41.4502 16.7276 42.4982C17.8329 43.5461 18.7172 44.4562 18.662 44.5114C18.6343 44.5665 16.6171 44.9526 14.1853 45.3663C11.7535 45.78 8.32695 46.5246 6.58603 47.021C4.84511 47.5174 2.85548 48.2069 2.16464 48.5378C1.44616 48.8963 0.700054 49.0618 0.368449 48.9791C0 48.8687 -0.0921123 48.7217 0.0921123 48.5378C0.230281 48.3723 1.7225 47.7932 3.40816 47.1865C5.06618 46.6073 7.94008 45.8076 9.7639 45.4215C11.5877 45.0354 13.9919 44.5941 17.0868 44.1253L15.4841 42.5533C14.5998 41.6708 13.605 40.347 13.2457 39.5749C12.8589 38.8302 12.5273 37.7547 12.4444 37.2307C12.3891 36.7067 12.5273 35.2726 12.8036 34.0592C13.0799 32.8458 13.8813 30.1155 14.6274 27.992C15.8709 24.3516 15.9262 24.1034 15.4841 23.6346C15.2354 23.3864 14.9314 23.2485 14.8485 23.3588C14.7656 23.4967 13.8813 25.8684 12.9141 28.6814C11.3114 33.4249 11.1732 33.9489 11.1732 36.2655C11.1456 38.2787 11.2561 38.9957 11.7535 39.9885C12.0851 40.678 12.8036 41.6432 13.3287 42.1396C13.9642 42.6912 14.1853 43.0773 13.9642 43.1325C13.7984 43.2152 12.4996 43.4634 11.1456 43.7116C9.7639 43.9598 7.52558 44.4562 6.17152 44.8423C4.78984 45.2284 2.91075 45.8351 1.94357 46.2212C1.00402 46.5797 0.175013 46.8279 0.0921123 46.7452C0.00921123 46.6625 0.67242 45.6421 1.58433 44.4838C2.46861 43.2979 3.90556 41.202 4.76221 39.8506C5.61885 38.4993 7.00054 36.0173 7.82955 34.335C8.63092 32.6803 10.0679 29.0951 12.6654 21.5111L11.2009 20.8216C10.4271 20.4355 9.5981 20.1322 9.40467 20.1322C9.23886 20.1322 9.07306 20.0218 9.07306 19.8564C9.07306 19.7185 9.40467 18.8084 9.81917 17.8707C10.206 16.9055 10.6205 16.023 10.7034 15.9127C10.7864 15.8024 11.5601 16.1333 12.3891 16.6849C13.5221 17.4295 13.9642 17.595 14.1024 17.3192C14.2129 17.1261 14.0748 16.7124 13.7708 16.4091C13.4945 16.1057 12.8312 15.6093 12.2786 15.306C11.7259 15.0026 11.2838 14.6717 11.2838 14.5613C11.2838 14.4234 11.3943 14.2856 11.5601 14.2028C11.6983 14.1201 12.4444 14.5062 14.5998 15.9954L16.6723 9.87303C17.8329 6.4809 18.7449 3.61276 18.6896 3.47487C18.662 3.3094 18.0816 2.48205 17.4184 1.59954L16.2026 0ZM16.2578 19.5806C18.9107 22.4763 20.1265 23.9655 20.6792 24.7653C21.5359 26.0615 21.7017 26.1994 22.0056 25.8133C22.282 25.4548 22.2543 25.2066 21.8122 24.4895C21.5082 23.9931 20.4581 22.6142 19.4633 21.4559L17.6395 19.3048C20.9279 9.70756 21.3424 8.16318 21.1766 7.61161C21.0661 7.22551 20.8726 6.89457 20.7621 6.89457C20.6239 6.89457 19.5739 9.76272 18.4132 13.2376L16.2578 19.5806ZM19.8778 15.2508L18.4685 19.3048C19.3804 20.0494 20.3476 21.2353 21.2043 22.3936L22.7517 24.4895C25.1835 22.0902 25.902 21.2629 25.902 21.0974C25.9296 20.9595 25.0453 18.3947 23.9676 15.4438C22.8899 12.493 22.0056 10.0109 21.9504 9.95576C21.9227 9.90061 21.7569 10.1488 21.5911 10.5073C21.4253 10.8658 20.6516 12.9894 19.8778 15.2508ZM36.762 16.547C36.9555 16.547 37.5634 17.6777 39.0833 21.649L37.5081 21.9247C36.6239 22.0902 35.8225 22.3108 35.6843 22.4212C35.5461 22.5315 36.2646 24.8756 39.0556 32.5975L41.4045 34.5556C42.6756 35.6312 43.8362 36.5688 43.9744 36.6516C44.0849 36.7343 43.8639 37.341 42.7862 39.1612L35.4632 39.106C30.8484 39.0509 28.1127 38.913 28.0574 38.7475C28.0021 38.582 30.5721 38.4166 35.1316 38.3338C41.9019 38.1959 42.3164 38.1684 42.6756 37.6444C43.0349 37.148 42.8967 36.9549 38.3648 33.2318L36.4304 27.8541C35.3803 24.9032 34.4961 22.3108 34.4961 22.1454C34.4961 21.9523 34.8829 21.6765 35.3803 21.5111C35.8777 21.3456 36.6239 21.2353 37.0384 21.2353C37.4529 21.2353 37.8121 21.1526 37.8121 21.0422C37.8121 20.9044 37.5081 19.9943 37.1213 18.9739C36.7344 17.9259 36.4304 16.9882 36.4304 16.8228C36.4304 16.6849 36.5686 16.547 36.762 16.547Z" fill="#2B2A29"/>
</svg>
