<svg width="23" height="22" viewBox="0 0 23 22" fill="none" xmlns="http://www.w3.org/2000/svg">
<path fill-rule="evenodd" clip-rule="evenodd" d="M0.732227 0.500561C0.849023 0.496203 0.979297 0.517991 1.01973 0.53978C1.06465 0.565925 1.85977 0.875317 2.78516 1.22829C3.71055 1.58125 4.52813 1.90372 4.59551 1.94294C4.66289 1.98651 4.74824 2.06495 4.78418 2.1216C4.82012 2.17389 5.00879 2.65759 5.55684 4.1784L14.0201 4.20019C22.4115 4.22198 22.4834 4.22198 22.6406 4.30913C22.735 4.36142 22.8383 4.47472 22.9012 4.59238C22.9551 4.70132 23 4.84076 23 4.90613C23 4.97585 22.3037 7.13724 21.4502 9.7126C20.5967 12.288 19.86 14.4755 19.8105 14.5714C19.7507 14.6876 19.6608 14.7747 19.541 14.8328C19.3658 14.92 19.2715 14.92 8.06348 14.92L7.75801 15.7348C7.5918 16.188 7.44805 16.5889 7.43457 16.6325C7.41211 16.7022 7.72207 16.7066 13.3732 16.7197C19.249 16.7284 19.3434 16.7284 19.4916 16.8155C19.5725 16.8635 19.6803 16.9724 19.7297 17.0552C19.7926 17.1642 19.8105 17.26 19.7926 17.382C19.7791 17.4779 19.7297 17.6043 19.6848 17.6653C19.6398 17.7263 19.532 17.8091 19.4467 17.8483C19.3344 17.905 19.1861 17.9267 18.5078 17.9267L18.6156 18.0705C18.674 18.1446 18.7684 18.2971 18.8223 18.4061C18.8807 18.515 18.9525 18.7024 18.984 18.8201C19.0199 18.9421 19.0469 19.1861 19.0469 19.3648C19.0469 19.5565 19.0109 19.8005 18.966 19.953C18.9211 20.0968 18.8223 20.3104 18.7504 20.4324C18.6785 20.55 18.5123 20.7505 18.3865 20.8769C18.2563 21.0032 18.0406 21.1601 17.9148 21.2211C17.7846 21.2865 17.5645 21.3736 17.4297 21.4172C17.277 21.4651 17.0523 21.5 16.8457 21.5C16.6121 21.5 16.4189 21.4695 16.2168 21.3998C16.0551 21.3431 15.835 21.2516 15.7227 21.1906C15.6104 21.1252 15.4217 20.9771 15.2959 20.8594C15.1746 20.7374 15.0084 20.5239 14.9275 20.3844C14.8512 20.245 14.7568 20.0184 14.7164 19.8877C14.676 19.7569 14.6445 19.5216 14.6445 19.3648C14.6445 19.2079 14.676 18.9639 14.7164 18.8201C14.7568 18.6763 14.8287 18.4802 14.8781 18.3843C14.932 18.2884 15.0264 18.1446 15.2061 17.9224L12.8117 17.9267C11.5 17.9267 10.4219 17.9355 10.4219 17.9485C10.4219 17.9616 10.4893 18.0618 10.5701 18.1795C10.651 18.2928 10.7678 18.5194 10.8217 18.6893C10.898 18.9072 10.9295 19.0946 10.9295 19.343C10.9295 19.5347 10.898 19.7918 10.8621 19.9095C10.8262 20.0315 10.7363 20.2363 10.6689 20.367C10.5971 20.4977 10.4309 20.7156 10.2916 20.8507C10.1523 20.9858 9.9502 21.1427 9.83789 21.1993C9.72559 21.256 9.51445 21.3475 9.36621 21.3998C9.16855 21.4739 9.00234 21.5 8.7373 21.5C8.46777 21.5 8.30156 21.4695 8.07695 21.3911C7.90625 21.3301 7.66367 21.2168 7.53789 21.1383C7.40762 21.0555 7.20996 20.8943 7.09766 20.7723C6.98535 20.6546 6.8416 20.4498 6.77422 20.3191C6.70684 20.1884 6.61699 19.9487 6.57207 19.7787C6.50918 19.5173 6.50469 19.4214 6.54961 19.1033C6.58555 18.8593 6.65293 18.6283 6.75176 18.4322C6.82812 18.271 6.93145 18.101 6.97637 18.0618C7.02129 18.0226 7.05723 17.9834 7.05273 17.9703C7.05273 17.9572 6.88652 17.9355 6.68438 17.9224C6.42383 17.905 6.27109 17.8744 6.18125 17.8134C6.10938 17.7699 6.02402 17.6784 5.99258 17.613C5.95664 17.5433 5.92969 17.4125 5.92969 17.3167C5.92969 17.2034 6.10488 16.6717 6.41934 15.822C6.68887 15.0986 6.95391 14.3927 7.00332 14.2533C7.06621 14.0833 7.14707 13.9657 7.4166 13.7652L5.5209 8.44889C4.47871 5.52491 3.61172 3.1195 3.59824 3.10207C3.58477 3.08028 2.86602 2.79703 1.99902 2.46585C1.13652 2.13467 0.363867 1.82528 0.291992 1.77735C0.220117 1.72506 0.121289 1.60304 0.0808594 1.50717C0.0359375 1.40695 0 1.27186 0 1.2065C0 1.13678 0.0404297 1.00169 0.0898438 0.901463C0.14375 0.792522 0.24707 0.670509 0.350391 0.609502C0.462695 0.535422 0.583984 0.500561 0.732227 0.500561ZM6.25312 6.13062C6.34746 6.39644 6.47324 6.76248 6.53613 6.93679L6.64844 7.25054H10.6016V5.63821H6.07793L6.25312 6.13062ZM12.084 7.25489L15.4756 7.23311L15.4891 5.64257H12.084V7.25489ZM16.958 7.23311H20.727C21.1313 6.01733 21.248 5.65564 21.248 5.65128C21.248 5.64693 20.2777 5.64257 19.0918 5.64257H16.9355L16.958 7.23311ZM7.50195 9.6298C7.67266 10.1091 7.81641 10.5057 7.81641 10.51C7.81641 10.5144 8.44082 10.5231 9.20898 10.5231H10.6016V8.69291C7.95566 8.69291 7.1875 8.70599 7.1875 8.72342C7.1875 8.74085 7.32676 9.15047 7.50195 9.6298ZM12.084 10.5231H15.498V8.69291H12.084V10.5231ZM16.9355 10.5231L19.6398 10.5013C20.0891 9.15047 20.2148 8.74085 20.2148 8.72342C20.2148 8.70599 19.4781 8.69291 18.5752 8.69291H16.9355V10.5231ZM8.61602 12.7455L8.87207 13.4645L10.6016 13.4863V11.9611C8.85859 11.9611 8.35547 11.9742 8.35547 11.9916C8.35547 12.0091 8.47227 12.349 8.61602 12.7455ZM12.084 13.4863H15.498V11.9611H12.084V13.4863ZM16.9355 13.4863L18.6605 13.4645C19.0244 12.3838 19.1322 12.0439 19.1322 12.0134C19.1367 11.9699 18.8896 11.9611 18.0361 11.9611H16.9355V13.4863ZM8.07246 18.6632C8.00059 18.7242 7.90625 18.8506 7.85684 18.9421C7.80293 19.0423 7.77148 19.1948 7.77148 19.3473C7.77148 19.4781 7.79844 19.648 7.82988 19.7264C7.86582 19.8049 7.96016 19.9356 8.04551 20.0184C8.13086 20.0968 8.27012 20.1927 8.35547 20.2276C8.44082 20.2624 8.61152 20.2886 8.7373 20.2886C8.85859 20.2886 9.01582 20.2668 9.0832 20.2406C9.15508 20.2145 9.28086 20.1317 9.3752 20.0533C9.46504 19.9748 9.57285 19.8354 9.61777 19.7395C9.6627 19.6436 9.69863 19.465 9.69863 19.3473C9.69863 19.2253 9.6627 19.051 9.61777 18.9551C9.57285 18.8593 9.47852 18.7242 9.40664 18.6632C9.33477 18.5978 9.2 18.515 9.10566 18.4758C9.01582 18.4366 8.84512 18.4104 8.72383 18.4104C8.60703 18.4104 8.44082 18.4409 8.35547 18.4758C8.27012 18.515 8.13984 18.5978 8.07246 18.6632ZM16.0641 18.7896C16.0012 18.8811 15.9248 19.0423 15.8979 19.1512C15.8709 19.2558 15.8664 19.4127 15.8799 19.4998C15.8979 19.5826 15.9473 19.7177 15.9922 19.8049C16.0371 19.8877 16.1225 19.9966 16.1764 20.0489C16.2348 20.1056 16.365 20.1796 16.4639 20.2189C16.5627 20.2581 16.7424 20.2929 16.8682 20.2929C16.9984 20.2929 17.1646 20.2581 17.2725 20.2058C17.3713 20.1578 17.5105 20.0489 17.5869 19.9661C17.6588 19.8833 17.7441 19.7352 17.7756 19.6436C17.807 19.5521 17.834 19.4083 17.834 19.3255C17.834 19.2384 17.7801 19.0641 17.7127 18.9334C17.6273 18.7721 17.5195 18.6501 17.3893 18.563C17.2365 18.4584 17.1377 18.4279 16.9176 18.4148C16.693 18.4061 16.6031 18.4235 16.4145 18.515C16.2887 18.576 16.1314 18.7024 16.0641 18.7896Z" fill="white"/>
</svg>
