<svg width="63" height="63" viewBox="0 0 63 63" fill="none" xmlns="http://www.w3.org/2000/svg">
<circle cx="31.5" cy="31.5" r="31.5" fill="#EA5544"/>
<path fill-rule="evenodd" clip-rule="evenodd" d="M23.2051 12L47.082 12.0249L47.5333 12.2407C47.7794 12.3569 48.1322 12.5976 48.3046 12.7802C48.4851 12.9545 48.7066 13.2699 48.7969 13.4773C48.9692 13.8508 48.9692 13.9255 48.9938 25.9684C49.0102 37.2144 49.002 38.1191 48.8707 38.5424C48.764 38.8827 48.6163 39.1151 48.2799 39.4637C47.9271 39.8288 47.7138 39.9616 47.3692 40.0695C46.9671 40.1857 46.3107 40.2023 36.6615 40.2023L36.5466 40.6754C36.4892 40.941 36.3087 41.4971 36.1528 41.9038C35.9969 42.3105 35.7425 42.8914 35.5784 43.1902C35.4143 43.489 35.1271 43.9538 34.9384 44.2277C34.7497 44.5016 34.4051 44.9498 34.1671 45.2236C33.9292 45.4975 33.4943 45.9374 33.1907 46.2113C32.8871 46.4769 32.3456 46.8919 31.9846 47.1326C31.6236 47.3733 31.0902 47.6886 30.7948 47.838C30.4995 47.9874 29.8923 48.2281 29.441 48.3858C28.9897 48.5352 28.161 48.7344 27.5948 48.8257C27.0287 48.9253 26.3313 49 26.0359 49C25.7405 49 25.043 48.917 24.4769 48.8257C23.9107 48.7261 23.1559 48.5601 22.7948 48.4439C22.4338 48.3277 21.8266 48.087 21.441 47.9044C21.0554 47.7218 20.4482 47.3816 20.0872 47.1326C19.7261 46.8919 19.2174 46.5018 18.4872 45.8461H14.8769L14.6308 45.5971C14.4502 45.4145 14.3846 45.2734 14.3846 45.0576C14.3846 44.9 14.4256 44.6925 14.4667 44.6012C14.5077 44.5099 14.6554 44.3771 14.7949 44.3107C14.9754 44.2194 15.32 44.1862 17.0923 44.1862L16.6984 43.5388C16.4851 43.1902 16.2636 42.7752 16.1077 42.3603L14.0236 42.3354C12.079 42.3188 11.9149 42.3105 11.7097 42.1528C11.5867 42.0615 11.4554 41.8706 11.4061 41.7378C11.3651 41.605 11.3569 41.4058 11.3815 41.2979C11.4061 41.1983 11.521 41.024 11.8328 40.7003H13.6461C15.0328 40.7003 15.4513 40.6754 15.4513 40.5924C15.4513 40.5426 15.3856 40.111 15.1641 38.7914H11.4061C8.80513 38.7914 7.59897 38.7665 7.46769 38.7001C7.36923 38.6503 7.22154 38.5258 7.14769 38.4262C7.06564 38.3349 7 38.1108 7 37.9365C7 37.6875 7.04923 37.5796 7.57436 37.1314H15.2051L15.2543 36.7331C15.279 36.5173 15.3364 36.1106 15.4923 35.3055H13.8923C13.0143 35.3055 12.161 35.2723 12.0051 35.2225C11.8492 35.181 11.6441 35.0648 11.5538 34.9652C11.439 34.849 11.3897 34.6747 11.3897 34.4258C11.3897 34.1602 11.439 34.0191 11.5785 33.878C11.759 33.6954 11.8082 33.6871 16.0667 33.6041L16.1815 33.3551C16.239 33.2223 16.4769 32.799 17.0923 31.7367L15.9354 31.7118C14.7867 31.6952 14.7785 31.6952 14.5815 31.4628C14.442 31.3051 14.3846 31.1391 14.3846 30.9067C14.3846 30.6743 14.442 30.5083 14.7785 30.1182L18.5282 30.0684L18.8154 29.7945C18.9713 29.6368 19.3405 29.3297 19.6359 29.114C19.9313 28.8899 20.3825 28.5911 21.1046 28.2093L21.1538 13.9338L21.3754 13.4773C21.4902 13.2284 21.7528 12.8715 21.9497 12.6889C22.1466 12.5063 22.5159 12.2739 22.762 12.1826L23.2051 12ZM22.8359 14.2824C22.7866 14.4733 22.7538 17.0213 22.7456 20.9803C22.7456 24.4993 22.762 27.3959 22.7866 27.4125C22.8113 27.4374 23.0574 27.3959 23.3446 27.3212C23.6236 27.2465 24.1897 27.1386 24.6 27.0805C25.0677 27.0141 25.7487 26.9975 26.4872 27.0307C27.1189 27.0556 27.8902 27.1303 28.2102 27.205C28.522 27.2714 29.08 27.4291 29.441 27.5453C29.802 27.6698 30.4092 27.9188 30.7948 28.118C31.1723 28.3089 31.7877 28.6658 32.1487 28.9065C32.5097 29.1472 33.2071 29.7613 33.7077 30.2676C34.2 30.7739 34.8071 31.4877 35.0451 31.8528C35.283 32.218 35.6194 32.8156 35.7917 33.1808C35.9723 33.546 36.202 34.127 36.3169 34.4673C36.4317 34.8158 36.5794 35.3719 36.6533 35.7122C36.7271 36.0608 36.8174 36.8327 36.8502 37.4385L36.9076 38.5424L46.8851 38.5341L47.3692 38.0361V14.216L46.8769 13.718H39.7384C39.7384 20.64 39.7056 22.773 39.6728 22.9224C39.6399 23.0801 39.5251 23.2959 39.4184 23.4038C39.2707 23.5449 39.1312 23.5947 38.8851 23.5947C38.5815 23.5947 38.36 23.4619 36.8666 22.3912C35.9394 21.7355 35.1435 21.1961 35.1025 21.1961C35.0533 21.1878 34.241 21.7355 33.2974 22.3912C31.8205 23.4287 31.5251 23.603 31.2625 23.603C31.0328 23.5947 30.8933 23.5366 30.7128 23.3457L30.4666 23.0967V13.718C23.8123 13.718 23.2543 13.7346 23.0984 13.8425C23 13.9172 22.8769 14.1081 22.8359 14.2824ZM32.1077 21.1878C32.4523 20.9554 33.043 20.5404 33.642 20.1254C34.241 19.7104 34.8318 19.3452 34.9548 19.312C35.0779 19.2871 35.2748 19.312 35.3897 19.3701C35.4964 19.4282 36.1364 19.8598 36.801 20.3329C37.4656 20.806 38.0317 21.1629 38.0564 21.1297C38.081 21.0965 38.0974 19.4116 38.0974 17.3948V13.718H32.1077V21.1878ZM23.2461 29.0891C22.9507 29.1887 22.4666 29.3795 22.1795 29.5123C21.8841 29.6451 21.3507 29.9522 20.9897 30.1846C20.6287 30.4253 20.0625 30.8818 19.7261 31.1972C19.3979 31.5126 18.9302 32.0354 18.6841 32.3508C18.4461 32.6745 18.1015 33.214 17.921 33.5543C17.7323 33.9029 17.4697 34.517 17.3302 34.9237C17.1908 35.3387 17.0267 36.011 16.9528 36.4177C16.8625 36.9655 16.8379 37.48 16.8708 38.3266C16.8954 39.1815 16.961 39.7044 17.1087 40.277C17.2236 40.7169 17.4615 41.3892 17.6338 41.771C17.8143 42.1611 18.1343 42.7503 18.3477 43.0823C18.561 43.4143 19.0205 43.987 19.3651 44.3605C19.7179 44.7257 20.2431 45.2153 20.5384 45.4394C20.8256 45.6635 21.4738 46.0536 21.9743 46.3026C22.4666 46.5516 23.2461 46.8587 23.6974 46.9749C24.4441 47.1824 24.641 47.199 26.0359 47.199C27.4225 47.199 27.6195 47.1824 28.3743 46.9749C28.8256 46.8504 29.5641 46.5682 30.0154 46.3441C30.4666 46.1283 31.1312 45.7216 31.4923 45.4477C31.8533 45.1738 32.403 44.6759 32.723 44.3439C33.0348 44.0036 33.4697 43.4641 33.683 43.1404C33.8882 42.825 34.2082 42.2441 34.3887 41.854C34.5692 41.4722 34.8235 40.775 34.9466 40.3185C35.1518 39.555 35.1682 39.3807 35.1682 37.9531C35.1682 36.6252 35.1435 36.3347 34.9876 35.7537C34.8892 35.3885 34.6841 34.7909 34.5446 34.4258C34.3969 34.0606 34.0769 33.4298 33.8307 33.0231C33.5518 32.5749 33.0759 31.969 32.6 31.4794C32.1323 30.998 31.5333 30.4834 31.123 30.2095C30.7374 29.9605 30.1795 29.6451 29.8923 29.5123C29.5969 29.3712 29.1128 29.1887 28.8256 29.0891C28.5302 28.9895 27.9559 28.8567 27.5538 28.7903C27.1436 28.7156 26.4215 28.6658 25.9538 28.6658C25.4779 28.6741 24.7969 28.7322 24.4359 28.7986C24.0748 28.8567 23.5333 28.9895 23.2461 29.0891ZM11.16 30.0767C12.0708 30.0684 12.0872 30.0767 12.3497 30.3174C12.5713 30.5166 12.6205 30.6162 12.6205 30.8984C12.6205 31.1972 12.5713 31.2885 12.0461 31.7533L11.0287 31.7201C10.0441 31.6952 10.0113 31.6869 9.82256 31.4628C9.69128 31.3051 9.62564 31.1308 9.62564 30.9233C9.62564 30.749 9.68307 30.5249 9.75692 30.417C9.82256 30.3091 9.96205 30.1929 10.0605 30.1514C10.159 30.1182 10.6513 30.0767 11.16 30.0767ZM11.0779 44.1862C11.5456 44.1862 12.0133 44.2194 12.1282 44.2609C12.2349 44.3107 12.4072 44.4684 12.4974 44.6178C12.6123 44.8004 12.6533 44.9664 12.6205 45.1323C12.5959 45.2734 12.4646 45.4892 12.3333 45.6137C12.0872 45.8378 12.0626 45.8378 10.1179 45.8378L9.87179 45.5888C9.69128 45.4145 9.62564 45.2651 9.62564 45.0494C9.62564 44.8917 9.65846 44.6842 9.70769 44.5929C9.74871 44.5016 9.8882 44.3771 10.0113 44.3107C10.1672 44.2277 10.5036 44.1862 11.0779 44.1862ZM26.3641 30.3672C26.7907 30.3921 27.3979 30.4668 27.7179 30.5415C28.0297 30.6162 28.5466 30.7822 28.8666 30.915C29.1784 31.0478 29.6789 31.2968 29.9743 31.4794C30.2615 31.6537 30.762 32.0354 31.0738 32.3259C31.3856 32.6164 31.8205 33.0978 32.042 33.3883C32.2636 33.6871 32.6082 34.2681 32.8051 34.6747C33.002 35.0897 33.2482 35.762 33.3466 36.1687C33.4861 36.7414 33.5271 37.1646 33.5271 37.9531C33.5271 38.7499 33.4861 39.1649 33.3466 39.7376C33.2482 40.1525 33.0102 40.8082 32.8297 41.19C32.6492 41.5801 32.3456 42.1196 32.1487 42.3935C31.9518 42.6673 31.5415 43.1404 31.2297 43.4392C30.9261 43.738 30.4995 44.1032 30.3025 44.2443C30.0974 44.3854 29.6133 44.651 29.2359 44.8336C28.8502 45.0245 28.243 45.2568 27.882 45.3564C27.3487 45.5058 26.9959 45.539 26.0359 45.539C25.0677 45.539 24.7148 45.5058 24.1897 45.3564C23.8287 45.2568 23.2133 45.0245 22.8359 44.8336C22.4502 44.651 21.9661 44.3854 21.7692 44.2443C21.5641 44.1032 21.1456 43.738 20.8338 43.4392C20.522 43.1404 20.1118 42.6673 19.9149 42.3935C19.7261 42.1196 19.4143 41.5801 19.2338 41.19C19.0451 40.8082 18.8154 40.1857 18.7169 39.8205C18.5856 39.306 18.5446 38.9076 18.5364 38.0361C18.5364 37.1481 18.5692 36.7663 18.7169 36.1687C18.8236 35.762 19.0615 35.0897 19.2584 34.6747C19.4472 34.2681 19.7754 33.7037 19.9805 33.4298C20.1856 33.1559 20.5877 32.7077 20.8749 32.4338C21.162 32.1599 21.6215 31.7948 21.8923 31.6122C22.1631 31.4296 22.639 31.164 22.959 31.0146C23.2707 30.8735 23.7713 30.6909 24.0666 30.6079C24.3538 30.5332 24.8215 30.4419 25.0923 30.4004C25.363 30.3589 25.9292 30.3506 26.3641 30.3672ZM24.2718 32.2844C24.042 32.3591 23.6564 32.5251 23.4102 32.6496C23.1559 32.7741 22.7292 33.048 22.442 33.2555C22.1631 33.4713 21.7364 33.878 21.4984 34.1685C21.2605 34.459 20.9487 34.9403 20.8092 35.2308C20.6697 35.5213 20.4892 35.9446 20.4154 36.1687C20.3415 36.4011 20.2349 36.8825 20.1856 37.2476C20.12 37.7373 20.12 38.1108 20.1856 38.6171C20.2349 39.0072 20.3579 39.5716 20.4482 39.862C20.5466 40.1608 20.7682 40.6505 20.9405 40.941C21.1128 41.2398 21.4656 41.7212 21.7364 42.0117C21.999 42.3022 22.4584 42.7005 22.7538 42.8997C23.041 43.0989 23.5087 43.3479 23.7795 43.4641C24.0502 43.572 24.5589 43.7297 24.9036 43.8044C25.2564 43.8708 25.7651 43.9289 26.0359 43.9289C26.3066 43.9289 26.8154 43.8708 27.16 43.8044C27.5128 43.7297 28.0215 43.572 28.2923 43.4641C28.563 43.3479 29.0225 43.0989 29.3179 42.8997C29.6051 42.7005 30.04 42.3354 30.2697 42.0947C30.4995 41.854 30.8112 41.4473 30.9753 41.19C31.1312 40.941 31.3528 40.5094 31.4677 40.2355C31.5825 39.9616 31.722 39.5384 31.7877 39.2811C31.8533 39.0321 31.8943 38.4262 31.8943 37.9116C31.8943 37.2061 31.8451 36.8659 31.6974 36.3762C31.5989 36.0359 31.3856 35.513 31.2379 35.2142C31.0902 34.9237 30.7948 34.4673 30.5897 34.2017C30.3846 33.9361 30.0071 33.5543 29.7446 33.3385C29.4902 33.131 28.9815 32.8156 28.6205 32.6413C28.2595 32.4587 27.7425 32.2595 27.4718 32.1931C27.201 32.1184 26.6841 32.052 26.323 32.0271C25.962 32.0105 25.4451 32.0271 25.1743 32.0686C24.9036 32.1101 24.4933 32.2097 24.2718 32.2844ZM25.9948 33.7203C26.1507 33.7203 26.3559 33.7618 26.4461 33.8033C26.5364 33.8531 26.6595 34.0025 26.7333 34.1353C26.8236 34.3262 26.8564 34.7079 26.8564 37.1231L27.7918 37.148C28.7025 37.1646 28.7436 37.1729 28.9651 37.397C29.1374 37.5713 29.1948 37.7041 29.1948 37.9614C29.1948 38.2436 29.1456 38.3432 28.6615 38.7831H27.2666C26.2492 38.7831 25.8061 38.7582 25.642 38.6752C25.5189 38.6088 25.3713 38.4511 25.3138 38.3183C25.2318 38.144 25.2154 37.5796 25.2564 34.127L25.4861 33.9278C25.6338 33.795 25.8143 33.7203 25.9948 33.7203Z" fill="white"/>
</svg>
