<svg width="20" height="17" viewBox="0 0 20 17" fill="none" xmlns="http://www.w3.org/2000/svg">
<path d="M2 2.48145L8.10764 7.09371L8.10967 7.0954C8.78785 7.59273 9.12714 7.84154 9.49876 7.93766C9.82723 8.02262 10.1725 8.02262 10.501 7.93766C10.8729 7.84146 11.2132 7.59192 11.8926 7.09371C11.8926 7.09371 15.8101 4.08739 18 2.48145M1 12.2816V4.68164C1 3.56154 1 3.00107 1.21799 2.57324C1.40973 2.19692 1.71547 1.89118 2.0918 1.69943C2.51962 1.48145 3.08009 1.48145 4.2002 1.48145H15.8002C16.9203 1.48145 17.4796 1.48145 17.9074 1.69943C18.2837 1.89118 18.5905 2.19692 18.7822 2.57324C19 3.00065 19 3.56044 19 4.67836V12.285C19 13.4029 19 13.9619 18.7822 14.3893C18.5905 14.7657 18.2837 15.0719 17.9074 15.2637C17.48 15.4814 16.921 15.4814 15.8031 15.4814H4.19691C3.07899 15.4814 2.5192 15.4814 2.0918 15.2637C1.71547 15.0719 1.40973 14.7657 1.21799 14.3893C1 13.9615 1 13.4017 1 12.2816Z" stroke="white" stroke-width="2" stroke-linecap="round" stroke-linejoin="round"/>
</svg>
