<svg width="63" height="63" viewBox="0 0 63 63" fill="none" xmlns="http://www.w3.org/2000/svg">
<circle cx="31.5" cy="31.5" r="31.5" fill="#EA5544"/>
<path fill-rule="evenodd" clip-rule="evenodd" d="M31.3799 11.0012C32.6291 10.9931 33.2297 11.0252 34.1025 11.1533C34.7191 11.2494 35.616 11.4096 36.1045 11.5137C36.593 11.6259 37.3777 11.8421 37.8662 12.0023C38.3547 12.1625 39.1635 12.4748 39.668 12.6911C40.1725 12.9073 40.9492 13.2838 41.3896 13.532C41.8301 13.7803 42.4947 14.1808 42.8711 14.4371C43.2475 14.6854 43.9121 15.1819 44.3525 15.5343C44.793 15.8867 45.5297 16.5515 45.9861 17.008C46.4426 17.4645 47.1072 18.2014 47.4596 18.6419C47.8119 19.0824 48.3084 19.7471 48.5566 20.1236C48.8129 20.5 49.2133 21.1648 49.4615 21.6053C49.7098 22.0458 50.0861 22.8227 50.3023 23.3272C50.5186 23.8318 50.8469 24.6968 51.023 25.2494C51.1992 25.8021 51.4154 26.595 51.5035 27.0114C51.5996 27.4279 51.7437 28.2849 51.8318 28.9176C51.952 29.7185 52 30.4634 52 31.4405C52 32.2174 51.9439 33.2346 51.8799 33.7792C51.8078 34.3078 51.6637 35.1728 51.5596 35.7014C51.4555 36.23 51.2152 37.135 51.0311 37.7037C50.8469 38.2723 50.5186 39.1613 50.3023 39.6659C50.0861 40.1705 49.7098 40.9474 49.4615 41.3879C49.2133 41.8284 48.8129 42.4931 48.5566 42.8696C48.3084 43.246 47.8439 43.8787 47.5236 44.2712C47.2113 44.6636 46.5467 45.4005 46.0502 45.905C45.5617 46.4016 44.793 47.1064 44.3525 47.4588C43.9121 47.8112 43.1594 48.3638 42.6709 48.6842C42.1824 48.9966 41.4137 49.4531 40.9492 49.7014C40.4848 49.9416 39.676 50.3101 39.1475 50.5263C38.6189 50.7346 37.7941 51.0229 37.3057 51.159C36.8172 51.3032 36.1365 51.4794 35.7842 51.5515C35.4318 51.6236 34.6551 51.7517 34.0625 51.8398C33.2777 51.96 32.573 52 31.5 52C30.4109 52 29.7223 51.96 28.8975 51.8318C28.2809 51.7437 27.432 51.5915 27.0156 51.5034C26.5992 51.4153 25.8064 51.1991 25.2539 51.0229C24.7014 50.8467 23.8605 50.5263 23.3721 50.3261C22.8836 50.1179 22.1148 49.7334 21.6504 49.4771C21.1859 49.2208 20.5053 48.8124 20.1289 48.5561C19.7525 48.3078 19.0879 47.8112 18.6475 47.4588C18.207 47.1064 17.4703 46.4416 17.0139 45.9851C16.5574 45.5286 15.8928 44.7918 15.5404 44.3513C15.1881 43.9108 14.6916 43.246 14.4434 42.8696C14.1951 42.4931 13.8027 41.8604 13.5785 41.468C13.3543 41.0755 13.002 40.3707 12.8018 39.9062C12.5936 39.4417 12.2732 38.6167 12.0811 38.0641C11.8969 37.5114 11.6486 36.6465 11.5285 36.1419C11.4164 35.6373 11.2482 34.7002 11.1602 34.0595C11.048 33.2666 11 32.4657 11 31.5366C11 30.7757 11.0561 29.7506 11.1201 29.214C11.1922 28.6854 11.3363 27.8044 11.4564 27.2517C11.5686 26.6991 11.8008 25.8021 11.977 25.2494C12.1531 24.6968 12.4895 23.8158 12.7217 23.2872C12.9619 22.7586 13.3223 22.0217 13.5305 21.6453C13.7387 21.2689 13.9869 20.8284 14.091 20.6602C14.1951 20.5 14.3633 20.3078 14.4594 20.2437C14.5635 20.1796 14.7717 20.1236 14.9238 20.1236C15.092 20.1236 15.2762 20.1876 15.3803 20.2838C15.4844 20.3719 15.6045 20.5401 15.6445 20.6682C15.7006 20.7963 15.7006 20.9645 15.6605 21.0847C15.6205 21.1968 15.4363 21.5412 15.2521 21.8455C15.06 22.1499 14.7236 22.7986 14.4834 23.2872C14.2512 23.7757 13.9148 24.5606 13.7387 25.0492C13.5625 25.5378 13.3063 26.3787 13.1701 26.9314C13.034 27.484 12.8658 28.349 12.7857 28.8535C12.6896 29.5103 12.6496 30.2632 12.6496 31.4966C12.6496 32.754 12.6896 33.4828 12.7937 34.1796C12.8738 34.7082 13.058 35.6133 13.2021 36.1819C13.3463 36.7506 13.6025 37.5835 13.7627 38.024C13.9229 38.4645 14.2672 39.2574 14.5234 39.786C14.7797 40.3146 15.1961 41.0755 15.4443 41.468C15.7006 41.8604 16.157 42.5332 16.4773 42.9497C16.7896 43.3661 17.5504 44.2151 18.167 44.8318C18.7836 45.4485 19.6645 46.2414 20.1289 46.5858C20.5934 46.9302 21.3621 47.4508 21.8506 47.7391C22.3391 48.0275 23.0598 48.4119 23.4521 48.5961C23.8445 48.7803 24.5652 49.0767 25.0537 49.2609C25.5422 49.4371 26.383 49.6934 26.9355 49.8295C27.4881 49.9577 28.3529 50.1339 28.8574 50.214C29.5221 50.3101 30.2588 50.3501 31.5 50.3501C32.7572 50.3501 33.4859 50.3101 34.1826 50.206C34.7111 50.1259 35.616 49.9416 36.1846 49.7975C36.7531 49.6533 37.5859 49.397 38.0264 49.2368C38.4668 49.0767 39.2996 48.7162 39.8682 48.4359C40.4367 48.1556 41.3416 47.635 41.8701 47.2826C42.3986 46.9382 43.1754 46.3616 43.5918 46.0092C44.0082 45.6648 44.7129 45 45.1533 44.5355C45.5938 44.0789 46.2104 43.3581 46.5227 42.9416C46.835 42.5252 47.2994 41.8604 47.5477 41.468C47.7959 41.0755 48.2123 40.3146 48.4686 39.786C48.7328 39.2574 49.0771 38.4645 49.2373 38.024C49.3975 37.5835 49.6537 36.7506 49.7979 36.1819C49.942 35.6133 50.1262 34.7082 50.2062 34.1796C50.3104 33.4828 50.3504 32.754 50.3504 31.4966C50.3504 30.2391 50.3104 29.5103 50.2062 28.8135C50.1262 28.2849 49.942 27.3879 49.7979 26.8112C49.6537 26.2346 49.3975 25.4096 49.2373 24.9691C49.0691 24.5286 48.7328 23.7357 48.4766 23.2071C48.2203 22.6785 47.8039 21.9176 47.5557 21.5252C47.2994 21.1247 46.835 20.468 46.5227 20.0515C46.2104 19.635 45.5938 18.9142 45.1533 18.4577C44.7129 17.9931 44.0082 17.3284 43.5918 16.984C43.1754 16.6316 42.3986 16.0549 41.8701 15.7105C41.3416 15.3581 40.4367 14.8375 39.8682 14.5572C39.2996 14.2769 38.4668 13.9165 38.0264 13.7563C37.5859 13.5961 36.7531 13.3398 36.1846 13.1957C35.616 13.0515 34.7111 12.8673 34.1826 12.7872C33.4859 12.6831 32.7572 12.643 31.5 12.643C30.2348 12.643 29.5221 12.6831 28.8174 12.7872C28.2889 12.8673 27.392 13.0515 26.8154 13.1957C26.2389 13.3398 25.4141 13.5961 24.9736 13.7563C24.5332 13.9245 23.8846 14.1888 23.5322 14.349C23.1799 14.5172 22.5312 14.8536 22.0908 15.1098C21.6504 15.3741 21.0578 15.7426 20.7695 15.9428C20.4812 16.143 20.1609 16.3433 20.0488 16.3753C19.9127 16.4314 19.7605 16.4073 19.5443 16.3272C19.3521 16.2391 19.208 16.111 19.1359 15.9348C19.0719 15.7986 19.0398 15.5904 19.0639 15.4783C19.0879 15.3661 19.184 15.1899 19.2801 15.0858C19.3682 14.9817 19.7045 14.7254 20.0088 14.5172C20.3131 14.3089 20.9297 13.9325 21.3701 13.6762C21.8105 13.4279 22.5633 13.0355 23.0518 12.8192C23.5402 12.595 24.4531 12.2426 25.0938 12.0343C25.7344 11.8181 26.6152 11.5698 27.0557 11.4817C27.4961 11.3856 28.2889 11.2414 28.8174 11.1613C29.49 11.0572 30.2668 11.0092 31.3799 11.0012ZM17.2461 17.2803C17.3982 17.3044 17.6145 17.4085 17.7266 17.5206C17.8707 17.6728 17.9268 17.8089 17.9268 18.0492C17.9268 18.3135 17.8787 18.4176 17.6625 18.6098C17.4863 18.77 17.3262 18.8421 17.126 18.8421C16.9178 18.8421 16.7816 18.778 16.6055 18.6018C16.4213 18.4176 16.3652 18.2895 16.3652 18.0572C16.3652 17.897 16.4293 17.6808 16.5094 17.5927C16.5814 17.4966 16.7176 17.3764 16.8057 17.3284C16.8938 17.2803 17.0939 17.2563 17.2461 17.2803ZM24.4531 21.5732C26.335 21.5652 26.6152 21.5812 26.8955 21.7174C27.0717 21.7975 27.3359 21.9897 27.4721 22.1499C27.6162 22.3181 27.7604 22.5423 27.7924 22.6625C27.8324 22.7906 27.8564 26.619 27.8564 39.4657L27.5922 40.0103C27.4 40.4108 27.2318 40.627 26.9115 40.8753C26.6793 41.0595 26.3029 41.2517 26.0547 41.3238C25.7744 41.4039 25.4381 41.4359 25.1338 41.4119C24.8695 41.3879 24.4932 41.2918 24.293 41.2037C24.0928 41.1076 23.7805 40.8753 23.5883 40.6911C23.3961 40.4989 23.1639 40.1865 23.0678 39.9863C22.8916 39.6259 22.8916 39.6179 22.8115 26.3307L22.3871 26.2746C22.1629 26.2346 21.8666 26.1545 21.7305 26.0904C21.5943 26.0263 21.3381 25.8341 21.1619 25.6659C20.9777 25.5057 20.7455 25.2014 20.6414 24.9851C20.5373 24.7769 20.4252 24.4165 20.4012 24.1842C20.3691 23.9066 20.3932 23.6209 20.4732 23.3272C20.5453 23.087 20.7135 22.7346 20.8416 22.5423C20.9777 22.3581 21.226 22.1179 21.3861 22.0057C21.5543 21.8936 21.8346 21.7494 22.0107 21.6854C22.259 21.5973 22.8035 21.5732 24.4531 21.5732ZM22.0668 23.6156C22.0027 23.7437 21.9787 23.9439 22.0027 24.0641C22.0268 24.1922 22.1389 24.3764 22.251 24.4886C22.4271 24.6648 22.5152 24.6888 23.0678 24.6888C23.5002 24.6888 23.7805 24.7288 23.9727 24.833C24.1648 24.9211 24.285 25.0572 24.349 25.2494C24.4211 25.4577 24.4451 27.2998 24.4451 32.3936L24.4531 39.2654C24.8375 39.6979 24.9816 39.77 25.2539 39.8021C25.5502 39.8341 25.6543 39.8101 25.8465 39.6499C25.9746 39.5538 26.1268 39.3455 26.1908 39.2014C26.2709 38.9931 26.2949 37.4153 26.2949 31.0561V23.1671C23.0437 23.1751 22.5232 23.1991 22.3711 23.2792C22.259 23.3352 22.1229 23.4874 22.0668 23.6156ZM36.601 21.5732C40.1404 21.5652 40.2365 21.5732 40.685 21.7414C40.9652 21.8455 41.2775 22.0458 41.4697 22.238C41.6539 22.4222 41.8861 22.7426 41.9902 22.9668C42.1504 23.2872 42.1824 23.4874 42.1824 23.968C42.1824 24.4325 42.1344 24.6568 41.9822 24.9691C41.8781 25.1854 41.6459 25.5137 41.4697 25.6819C41.2936 25.8581 40.9893 26.0744 40.7891 26.1625C40.4607 26.3146 40.2525 26.3307 36.1445 26.3707L36.0645 26.8272C36.0164 27.0835 35.9604 27.3719 35.9443 27.468C35.9043 27.6362 35.9363 27.6522 36.2406 27.6522C36.4328 27.6522 36.8172 27.7082 37.1055 27.7643C37.3937 27.8284 37.9143 27.9886 38.2666 28.1247C38.6189 28.2609 39.1395 28.5252 39.4277 28.7094C39.716 28.9016 40.1805 29.27 40.4607 29.5343C40.741 29.7986 41.1254 30.2311 41.3096 30.4954C41.5018 30.7597 41.766 31.2002 41.9021 31.4725C42.0383 31.7529 42.2385 32.2895 42.3506 32.6739C42.4707 33.0824 42.5748 33.6991 42.5988 34.1396C42.6389 34.6682 42.6068 35.1247 42.5188 35.6373C42.4467 36.0458 42.2865 36.6625 42.1504 36.9989C42.0223 37.3433 41.734 37.9039 41.5098 38.2403C41.2936 38.5847 40.8852 39.0892 40.6049 39.3696C40.3326 39.6499 39.8922 40.0263 39.6279 40.2025C39.3637 40.3787 38.9873 40.603 38.7871 40.7071C38.5869 40.8112 38.1945 40.9714 37.9062 41.0675C37.618 41.1636 37.0975 41.2918 36.7451 41.3478C36.3367 41.4119 35.8082 41.4359 35.3037 41.4039C34.8633 41.3799 34.2307 41.2757 33.9023 41.1876C33.574 41.0915 33.0055 40.8753 32.6371 40.6991C32.2607 40.5229 31.8363 40.2426 31.6361 40.0423C31.452 39.8581 31.2117 39.5217 31.0996 39.3055C30.9555 38.9931 30.9074 38.7689 30.9074 38.3043C30.8994 37.8158 30.9395 37.6236 31.1156 37.2632C31.2277 37.0149 31.476 36.6865 31.6682 36.5183C31.8604 36.3501 32.1486 36.1579 32.3008 36.0778C32.501 35.9817 32.7812 35.9417 33.3018 35.9417C33.9504 35.9417 34.0705 35.9657 34.543 36.1979C34.8312 36.3421 35.2236 36.4783 35.4238 36.5103C35.6561 36.5423 35.9443 36.5183 36.2246 36.4382C36.5369 36.3501 36.7771 36.214 37.0334 35.9657C37.2896 35.7254 37.4418 35.4931 37.5459 35.1808C37.642 34.8844 37.674 34.6121 37.65 34.3398C37.626 34.1156 37.5539 33.8272 37.4818 33.6991C37.4178 33.5629 37.2656 33.3387 37.1375 33.1865C37.0094 33.0343 36.7211 32.8261 36.5049 32.722C36.2406 32.6018 35.9523 32.5378 35.6641 32.5378C35.3197 32.5378 35.1195 32.5938 34.7432 32.786C34.4789 32.9222 34.1186 33.1144 33.9424 33.2105C33.6941 33.3387 33.4859 33.3787 32.9814 33.3787C32.4689 33.3787 32.2527 33.3307 31.9084 33.1785C31.6682 33.0664 31.3238 32.8181 31.1396 32.6179C30.9555 32.4176 30.7312 32.0572 30.6352 31.7929C30.5391 31.5446 30.459 31.1842 30.459 30.992C30.459 30.8078 30.7713 28.8535 31.1477 26.651C31.524 24.4485 31.8844 22.5584 31.9404 22.4462C31.9965 22.3341 32.1646 22.1339 32.3168 21.9897C32.4609 21.8455 32.6691 21.7014 32.7812 21.6533C32.9014 21.6053 34.4068 21.5732 36.601 21.5732ZM32.7492 26.7872C32.4049 28.7815 32.1086 30.5595 32.0846 30.7357C32.0579 30.9493 32.0872 31.1415 32.1727 31.3124C32.2447 31.4565 32.4129 31.6327 32.541 31.6968C32.6691 31.7609 32.8773 31.8169 32.9975 31.8169C33.1256 31.8169 33.4219 31.6888 33.6621 31.5286C33.9023 31.3764 34.3348 31.1762 34.623 31.0881C34.9273 31 35.3678 30.9359 35.6801 30.9359C35.9844 30.9359 36.4328 31 36.6811 31.0801C36.9373 31.1602 37.3057 31.3204 37.5059 31.4325C37.7061 31.5446 38.0504 31.833 38.2746 32.0652C38.4988 32.3055 38.7631 32.6499 38.8512 32.8341C38.9473 33.0263 39.0834 33.3867 39.1475 33.635C39.2115 33.8913 39.2676 34.2998 39.2676 34.54C39.2676 34.7803 39.2275 35.1407 39.1795 35.341C39.1314 35.5412 38.9953 35.8936 38.8832 36.1339C38.7631 36.3741 38.4988 36.7586 38.2986 36.9748C38.0824 37.2151 37.698 37.5034 37.3777 37.6796C37.0174 37.8719 36.617 38.008 36.2246 38.0721C35.7521 38.1522 35.5119 38.1602 35.0795 38.0801C34.7832 38.024 34.3268 37.8719 34.0625 37.7437C33.7982 37.6156 33.4539 37.5034 33.3018 37.5034C33.1496 37.5034 32.9334 37.5675 32.8133 37.6396C32.7012 37.7197 32.5811 37.9039 32.533 38.04C32.493 38.1842 32.485 38.3844 32.509 38.4806C32.533 38.5847 32.6531 38.7609 32.7732 38.889C32.8854 39.0092 33.2137 39.2094 33.502 39.3455C33.7902 39.4737 34.2707 39.6339 34.583 39.706C34.8953 39.77 35.3918 39.8261 35.7041 39.8261C36.0164 39.8261 36.5129 39.77 36.8252 39.706C37.1375 39.6419 37.69 39.4336 38.0664 39.2494C38.5949 38.9931 38.8912 38.7689 39.3957 38.2723C39.7881 37.8799 40.1564 37.4153 40.3326 37.103C40.4848 36.8146 40.693 36.3341 40.7811 36.0217C40.8771 35.7094 40.9732 35.1728 40.9973 34.8204C41.0293 34.3959 40.9973 33.9634 40.9172 33.5389C40.8371 33.1465 40.6529 32.6179 40.4287 32.1533C40.1484 31.5767 39.9402 31.2883 39.4838 30.8318C39.1715 30.5195 38.675 30.119 38.3867 29.9508C38.0984 29.7826 37.634 29.5744 37.3457 29.4783C36.9693 29.3581 36.5129 29.3021 35.6961 29.262C34.7111 29.222 34.535 29.1899 34.3908 29.0538C34.2947 28.9657 34.1986 28.7815 34.1746 28.6533C34.1506 28.5172 34.2467 27.7963 34.3828 27.0515C34.527 26.2986 34.6791 25.5778 34.7352 25.4497C34.7912 25.3135 34.9594 25.1213 35.1115 25.0092L35.3838 24.8089L40.1484 24.7288C40.5328 24.3364 40.5889 24.2082 40.5889 23.96C40.5889 23.6957 40.5408 23.5915 40.3246 23.3993L40.0684 23.1671H33.3658L32.7492 26.7872Z" fill="white"/>
</svg>
