<svg width="63" height="63" viewBox="0 0 63 63" fill="none" xmlns="http://www.w3.org/2000/svg">
<circle cx="31.5" cy="31.5" r="31.5" fill="#EA5544"/>
<path fill-rule="evenodd" clip-rule="evenodd" d="M31.386 12.4342C32.4689 12.4342 33.0601 12.4706 33.8153 12.5872C34.3638 12.6674 35.0833 12.7986 35.4181 12.8715C35.7529 12.9516 36.2943 13.0901 36.6291 13.1921C36.964 13.2868 37.5054 13.469 37.8402 13.5929C38.1964 13.7241 38.5312 13.899 38.6452 14.0156C38.7948 14.1686 38.8446 14.2852 38.8375 14.4893C38.8375 14.6933 38.7805 14.8245 38.6309 14.9848C38.4813 15.1452 38.3531 15.2035 38.1821 15.2035C38.0539 15.2035 37.6407 15.0796 37.2703 14.9411C36.8998 14.7954 36.1732 14.5694 35.6674 14.4383C35.1616 14.2998 34.3709 14.1322 33.9221 14.0666C33.3237 13.9646 32.6826 13.9354 31.5356 13.9281C30.6167 13.9281 29.7048 13.9646 29.3273 14.0229C28.9782 14.0739 28.3157 14.1978 27.8669 14.2998C27.4181 14.4018 26.7414 14.5913 26.3709 14.7079C26.0005 14.8318 25.3237 15.0941 24.8749 15.2909C24.4261 15.4877 23.7351 15.8302 23.3433 16.0561C22.9515 16.282 22.3745 16.6464 22.061 16.865C21.7476 17.0909 21.2489 17.4699 20.9569 17.7103C20.6648 17.9508 20.1519 18.4099 19.8242 18.7379C19.4965 19.0585 18.9978 19.5978 18.7129 19.9403C18.4279 20.2828 17.9293 20.9679 17.5944 21.4707C17.2667 21.9735 16.8179 22.7387 16.5971 23.1833C16.3763 23.6278 16.0699 24.3128 15.9132 24.7136C15.7565 25.1144 15.5285 25.7849 15.4146 26.2076C15.2935 26.6302 15.1296 27.3007 15.0512 27.7015C14.9729 28.1023 14.8732 28.7582 14.8233 29.159C14.7734 29.5598 14.7378 30.478 14.7449 31.1995C14.7449 31.9355 14.7948 32.861 14.8518 33.3129C14.9159 33.7574 15.0441 34.508 15.151 34.989C15.2578 35.47 15.4716 36.2351 15.6212 36.687C15.7779 37.1315 16.0201 37.7728 16.1697 38.1007C16.3193 38.436 16.5686 38.9534 17.0032 39.7987L17.0388 39.2157C17.0602 38.8951 17.1314 38.5599 17.1813 38.4724C17.2382 38.385 17.3593 38.2756 17.4448 38.2319C17.5374 38.1955 17.7013 38.159 17.8224 38.159C17.9649 38.159 18.1073 38.2319 18.4635 38.5963V42.3858L18.0504 42.823H14.3317L14.118 42.6044C13.9756 42.4587 13.9043 42.3129 13.9043 42.1672C13.9043 42.0506 13.9399 41.8757 13.9756 41.7809C14.0183 41.6935 14.1252 41.5696 14.2106 41.5113C14.3246 41.4311 14.6381 41.3947 16.248 41.3291L15.9275 40.7825C15.7494 40.4838 15.4288 39.8862 15.2151 39.4489C15.0014 39.019 14.7022 38.3339 14.5383 37.9258C14.3816 37.5105 14.1394 36.7963 14.0112 36.3372C13.883 35.8781 13.712 35.1566 13.6265 34.7339C13.5481 34.3113 13.4342 33.5752 13.37 33.0942C13.313 32.6133 13.2632 31.7096 13.2632 31.0902C13.2632 30.4707 13.313 29.5671 13.37 29.0861C13.4342 28.6051 13.541 27.8837 13.6194 27.4829C13.6977 27.0821 13.8687 26.346 14.0112 25.8432C14.1537 25.3403 14.4101 24.5897 14.574 24.1671C14.7449 23.7444 15.0584 23.0448 15.2792 22.6003C15.4929 22.1557 15.8562 21.5071 16.0771 21.1428C16.2979 20.7784 16.7111 20.1735 16.996 19.7946C17.2739 19.4156 17.915 18.665 18.4279 18.1257C18.9337 17.5937 19.639 16.916 19.9951 16.6245C20.3442 16.333 21.0067 15.8375 21.4555 15.5314C21.9043 15.2253 22.7734 14.7152 23.3789 14.4091C23.9845 14.103 24.8536 13.7168 25.3023 13.5492C25.7511 13.3889 26.5846 13.1338 27.1545 12.9881C27.7244 12.8496 28.5722 12.6747 29.0423 12.6091C29.5125 12.5435 29.9114 12.4779 29.9257 12.4634C29.9399 12.4488 30.6024 12.4342 31.386 12.4342V12.4342ZM46.8874 19.4302C48.4403 19.4302 48.6541 19.4448 48.8037 19.5541C48.9034 19.627 49.0245 19.7946 49.0744 19.9185C49.1527 20.1152 49.1527 20.2027 49.0744 20.3921C49.0245 20.5233 48.9034 20.6909 48.8037 20.7638C48.6612 20.8658 48.476 20.8877 47.7208 20.8877C47.2222 20.8877 46.8161 20.9023 46.8161 20.9241C46.8161 20.946 46.9657 21.2156 47.1438 21.5217C47.329 21.8351 47.6282 22.4108 47.8206 22.797C48.0129 23.1905 48.2979 23.8391 48.4546 24.2399C48.6113 24.6408 48.8321 25.2893 48.9461 25.6756C49.0601 26.0691 49.224 26.7177 49.3023 27.1185C49.3878 27.5193 49.5232 28.3064 49.6015 28.8675C49.687 29.5161 49.7369 30.2958 49.7369 31.0173C49.7369 31.6367 49.687 32.555 49.63 33.0578C49.573 33.5606 49.4519 34.3113 49.3736 34.7339C49.2881 35.1566 49.1242 35.8416 49.0102 36.2643C48.8963 36.687 48.6541 37.4084 48.476 37.8675C48.2979 38.3267 47.9915 39.0335 47.7921 39.4344C47.5997 39.8352 47.2293 40.5056 46.9729 40.9283C46.7235 41.351 46.2676 42.0214 45.9684 42.4222C45.6692 42.823 45.0281 43.5737 44.5365 44.0911C44.045 44.6085 43.3255 45.2862 42.9337 45.6069C42.5419 45.9275 41.9007 46.4085 41.5089 46.6708C41.1171 46.9332 40.3762 47.3704 39.8705 47.6401C39.3647 47.917 38.5739 48.2814 38.1251 48.4636C37.6763 48.6457 36.8856 48.9081 36.3798 49.0538C35.874 49.1923 35.1047 49.3745 34.6701 49.4474C34.2356 49.5275 33.6158 49.6223 33.281 49.6733C32.8963 49.7316 32.134 49.7462 31.2151 49.7316C30.2106 49.7097 29.4626 49.6514 28.8286 49.5494C28.3157 49.4619 27.6318 49.3235 27.297 49.236C26.9622 49.1559 26.4208 49.0028 26.086 48.9008C25.7511 48.7988 25.2454 48.6166 24.9604 48.5C24.5686 48.3397 24.4261 48.2376 24.3406 48.07C24.2837 47.9534 24.2338 47.7712 24.2338 47.6692C24.2338 47.5672 24.3121 47.3996 24.3976 47.283C24.4902 47.1737 24.6541 47.0644 24.7538 47.0279C24.8963 46.9915 25.2097 47.0644 25.9221 47.3121C26.4635 47.4943 27.2258 47.7202 27.6176 47.815C28.0094 47.9097 28.7004 48.0482 29.1492 48.121C29.7476 48.2158 30.3816 48.2449 31.5 48.2449C32.6185 48.2449 33.2525 48.2158 33.8509 48.121C34.2997 48.0482 34.9907 47.9097 35.3825 47.815C35.7743 47.7202 36.4297 47.5308 36.8429 47.385C37.256 47.2465 37.9257 46.9769 38.3388 46.7874C38.752 46.6052 39.3433 46.2992 39.6567 46.1243C39.9702 45.9421 40.5187 45.5923 40.8678 45.3518C41.2168 45.1113 41.7511 44.7178 42.0432 44.47C42.3353 44.2295 42.8482 43.7631 43.1759 43.4425C43.5036 43.1218 44.0307 42.5461 44.3371 42.1672C44.6505 41.7882 45.1634 41.0813 45.4769 40.6004C45.7832 40.1194 46.2106 39.3833 46.4243 38.9607C46.6309 38.538 46.9515 37.8165 47.1224 37.3574C47.2934 36.8983 47.5214 36.2206 47.6211 35.8635C47.7208 35.5064 47.8704 34.8797 47.9488 34.4789C48.0272 34.0781 48.1269 33.4222 48.1768 33.0214C48.2195 32.6206 48.2622 31.7388 48.2622 31.0537C48.2622 30.376 48.2266 29.4869 48.1768 29.0861C48.1269 28.6853 48.0058 27.9638 47.9061 27.4829C47.8135 27.0019 47.614 26.2513 47.4786 25.8067C47.3362 25.3622 47.0797 24.6626 46.9087 24.2399C46.7306 23.8173 46.4742 23.2634 46.0681 22.5274L46.0325 23.0885C46.004 23.5841 45.9684 23.6788 45.8046 23.8537C45.6549 24.0067 45.5338 24.0578 45.313 24.0578C45.0779 24.0578 44.9853 24.014 44.6078 23.5841V21.7768C44.6149 20.2755 44.6291 19.9476 44.7217 19.8019C44.7859 19.7071 44.907 19.5832 44.9853 19.5322C45.1064 19.4593 45.5695 19.4375 46.8874 19.4302ZM40.6683 15.065C40.6826 15.065 40.7965 15.1014 40.9176 15.1524C41.0459 15.2035 41.2097 15.3273 41.281 15.4294C41.3451 15.5241 41.4021 15.6917 41.4021 15.801C41.4021 15.9176 41.3522 16.0998 41.2952 16.2237C41.224 16.3767 41.1029 16.4642 40.9176 16.5225C40.7182 16.5808 40.6042 16.5808 40.4475 16.5006C40.3335 16.4496 40.1768 16.3257 40.1055 16.2237C40.0343 16.1217 39.9702 15.9322 39.9773 15.801C39.9773 15.6626 40.0485 15.4877 40.1554 15.3565C40.2551 15.2399 40.4047 15.1233 40.4973 15.1087C40.5828 15.0941 40.6612 15.0723 40.6683 15.065ZM31.3718 17.8342C31.7992 17.8342 32.4546 17.8634 32.8322 17.9071C33.2169 17.9435 33.8224 18.0456 34.1714 18.1184C34.5205 18.1913 35.1331 18.3589 35.525 18.4828C35.9168 18.614 36.6078 18.8982 37.0566 19.1168C37.5054 19.3355 38.2249 19.7508 38.6594 20.0496C39.094 20.3411 39.7066 20.8148 40.0272 21.099C40.3549 21.3832 40.8749 21.9225 41.1955 22.2869C41.5089 22.6586 41.9933 23.3071 42.2712 23.7298C42.5419 24.1525 42.9408 24.8521 43.1474 25.2966C43.354 25.7412 43.6389 26.4408 43.7743 26.8634C43.9168 27.2861 44.0948 27.9566 44.1732 28.3574C44.2516 28.7582 44.3513 29.4651 44.4012 29.9242C44.4439 30.4052 44.4653 31.1339 44.4368 31.6367C44.4154 32.1177 44.3442 32.81 44.2872 33.1671C44.2302 33.5242 44.102 34.1509 44.0022 34.5517C43.8954 34.9525 43.6817 35.623 43.5178 36.0457C43.3469 36.4683 43.0334 37.1388 42.8126 37.5396C42.5917 37.9404 42.2142 38.5453 41.9648 38.8878C41.7226 39.2303 41.2952 39.7696 41.0174 40.0829C40.7396 40.3963 40.2195 40.9064 39.8705 41.2052C39.5214 41.5113 38.9372 41.9485 38.5882 42.189C38.2391 42.4222 37.598 42.7939 37.1634 43.0052C36.7289 43.2166 36.045 43.5081 35.6318 43.6465C35.2186 43.7923 34.5632 43.9745 34.1714 44.0546C33.7796 44.1348 33.1242 44.2368 32.7111 44.2805C32.2979 44.317 31.7422 44.3534 31.4644 44.3534C31.1937 44.3534 30.5526 44.3024 30.0397 44.2441C29.5267 44.1785 28.793 44.0473 28.4012 43.9453C28.0094 43.8433 27.4965 43.6975 27.2614 43.6174C27.0263 43.5299 26.5775 43.355 26.2641 43.2093C25.9506 43.0708 25.4021 42.7866 25.053 42.5826C24.704 42.3785 24.1554 42.0141 23.842 41.7736C23.5285 41.5404 23.0156 41.1105 22.7093 40.8263C22.403 40.5421 21.9043 40.0101 21.6122 39.653C21.313 39.2959 20.8856 38.6983 20.6505 38.3412C20.4226 37.9841 20.0593 37.3283 19.8527 36.8837C19.639 36.4392 19.3754 35.8052 19.2614 35.4627C19.1474 35.1202 18.9693 34.4643 18.8696 34.0052C18.7699 33.5461 18.6488 32.81 18.5989 32.3655C18.549 31.8918 18.5348 31.1631 18.5561 30.5801C18.5846 30.0408 18.6559 29.2829 18.72 28.9039C18.7841 28.525 18.9408 27.8327 19.0691 27.3736C19.1973 26.9144 19.4537 26.193 19.6318 25.7703C19.817 25.3476 20.0806 24.7938 20.2302 24.5314C20.4154 24.1962 20.5722 24.0213 20.7431 23.9339C20.9284 23.8464 21.0495 23.8318 21.2062 23.8829C21.3273 23.9193 21.4911 24.0286 21.5766 24.1306C21.6692 24.2327 21.7405 24.4003 21.7405 24.5096C21.7405 24.6262 21.5125 25.1727 21.2347 25.7339C20.964 26.295 20.6434 27.0529 20.5294 27.41C20.4154 27.7671 20.2516 28.4084 20.1661 28.8311C20.0236 29.4869 20.0023 29.8076 20.0023 31.0902C20.0023 32.3655 20.0236 32.6934 20.1661 33.3493C20.2516 33.772 20.4297 34.4424 20.5579 34.8432C20.6933 35.244 20.9497 35.8853 21.1349 36.2643C21.3202 36.6432 21.6407 37.219 21.8473 37.5396C22.0539 37.8603 22.3246 38.2538 22.4457 38.4141C22.5739 38.5744 22.9373 38.9825 23.2578 39.3178C23.5784 39.653 24.0984 40.1267 24.4119 40.3817C24.7253 40.6295 25.2097 40.9793 25.4804 41.1469C25.7511 41.3218 26.2712 41.5987 26.6202 41.7664C26.9693 41.9413 27.5677 42.1745 27.9381 42.2983C28.3086 42.4222 28.8571 42.568 29.1492 42.6336C29.4413 42.6992 30.0824 42.7866 30.5739 42.8376C31.2578 42.9032 31.6852 42.9032 32.3905 42.8376C32.8963 42.7866 33.5588 42.6992 33.8509 42.6336C34.1429 42.568 34.6915 42.4222 35.0619 42.2983C35.4323 42.1745 36.0307 41.9413 36.3798 41.7664C36.7289 41.5987 37.2418 41.3218 37.5196 41.1469C37.7974 40.9793 38.2605 40.6441 38.5526 40.4182C38.8446 40.185 39.3647 39.704 39.7066 39.3542C40.0485 38.9971 40.4831 38.4943 40.6754 38.2319C40.8678 37.9696 41.1599 37.5323 41.3308 37.2481C41.5018 36.9639 41.7725 36.4392 41.9363 36.0821C42.1073 35.725 42.3353 35.1129 42.4564 34.7339C42.5775 34.355 42.72 33.7938 42.7841 33.4951C42.8482 33.1963 42.9337 32.5185 42.9835 32.0011C43.0477 31.2724 43.0477 30.8351 42.9835 30.1064C42.9337 29.5744 42.8054 28.78 42.6843 28.2845C42.5704 27.8035 42.3851 27.1768 42.2783 26.8999C42.1786 26.6157 41.9577 26.1128 41.7939 25.7703C41.6229 25.4278 41.2952 24.8521 41.0601 24.495C40.825 24.1379 40.3976 23.5768 40.1198 23.2561C39.8348 22.9355 39.3789 22.4691 39.094 22.214C38.8161 21.959 38.2961 21.5509 37.947 21.3104C37.598 21.0699 36.9853 20.7055 36.5935 20.5087C36.2017 20.3047 35.5606 20.0351 35.1688 19.8966C34.777 19.7654 34.1216 19.5832 33.7084 19.4958C33.0744 19.35 32.7396 19.3282 31.5 19.3282C30.2462 19.3282 29.9328 19.35 29.2917 19.4885C28.8785 19.5832 28.2088 19.7727 27.7957 19.9112C27.3825 20.0496 26.6487 20.3849 26.1572 20.6472C25.3807 21.0626 25.2311 21.1136 25.0032 21.0772C24.8251 21.048 24.6826 20.9679 24.59 20.8294C24.5045 20.7201 24.4404 20.5233 24.4404 20.3776C24.4404 20.2391 24.5045 20.0423 24.5757 19.9403C24.647 19.8383 25.1314 19.5395 25.6657 19.2699C26.1928 19.0002 26.8909 18.6869 27.2258 18.5703C27.5606 18.4537 28.2017 18.2715 28.6505 18.1622C29.0993 18.0601 29.7262 17.9508 30.0397 17.9144C30.3531 17.878 30.9515 17.8415 31.3789 17.8342H31.3718ZM31.4787 20.6035C31.5214 20.5962 31.671 20.6472 31.7992 20.7055C31.9203 20.7638 32.0699 20.895 32.1198 20.997C32.1625 21.099 32.2053 21.376 32.2053 21.6164C32.2053 22.0027 32.1768 22.0828 31.9987 22.2723C31.842 22.4399 31.7209 22.4909 31.5143 22.4909C31.3219 22.4982 31.1866 22.4399 31.0512 22.3088C30.9372 22.2067 30.8304 22.0391 30.809 21.9225C30.7805 21.8132 30.7734 21.5727 30.7876 21.3905C30.8019 21.2011 30.8731 20.9751 30.9444 20.8877C31.0156 20.793 31.1438 20.6982 31.2293 20.6618C31.3148 20.6326 31.4288 20.6035 31.4787 20.6035ZM22.8019 21.5436C23.0227 21.5436 23.1367 21.5946 23.3006 21.7622C23.4573 21.9225 23.5143 22.0464 23.5143 22.2359C23.5143 22.4181 23.4502 22.5638 23.3077 22.7241C23.1438 22.9063 23.037 22.9646 22.8518 22.9646C22.7093 22.9646 22.5098 22.899 22.403 22.8189C22.2961 22.7387 22.1821 22.5711 22.1394 22.4545C22.1038 22.3306 22.0967 22.163 22.118 22.0683C22.1394 21.9808 22.2391 21.8278 22.3389 21.7258C22.4671 21.5873 22.5882 21.5436 22.8019 21.5436ZM37.89 23.8027C37.9755 23.8027 38.1323 23.8464 38.2391 23.9047C38.3531 23.9557 38.4813 24.0869 38.5241 24.1962C38.5739 24.2982 38.6167 24.4513 38.6167 24.5314C38.6167 24.6116 38.5739 24.7646 38.5169 24.874C38.4599 24.9906 37.3415 26.1711 33.6657 29.9315L33.801 30.3469C33.8936 30.6384 33.9221 30.9007 33.9007 31.2359C33.8794 31.5493 33.8081 31.8481 33.6799 32.1104C33.5802 32.3291 33.3593 32.6497 33.1884 32.8246C33.0174 32.9995 32.7039 33.2254 32.4902 33.3347C32.1554 33.5023 32.0058 33.5315 31.4929 33.5315C30.98 33.5315 30.8304 33.5023 30.4956 33.3347C30.2819 33.2254 29.9684 32.9995 29.7974 32.8246C29.6265 32.6497 29.4056 32.3291 29.2988 32.1104C29.1777 31.8481 29.1064 31.5493 29.0851 31.2359C29.0637 30.9007 29.0922 30.6384 29.3202 29.9315L28.159 28.7436C27.5178 28.0877 26.9479 27.4683 26.891 27.3517C26.834 27.2424 26.7912 27.0529 26.7912 26.9363C26.7912 26.7906 26.8625 26.6448 26.9978 26.4991C27.1403 26.3533 27.2756 26.2804 27.4252 26.2804C27.5463 26.2804 27.7316 26.3242 27.8384 26.3825C27.9524 26.4408 28.5579 27.0238 30.3602 28.8675L30.7307 28.7436C30.9372 28.6707 31.2792 28.6197 31.4929 28.6197C31.7066 28.6197 32.0486 28.6707 32.6256 28.8675L34.9622 26.4699C36.2445 25.1582 37.3985 24.014 37.5125 23.9412C37.6265 23.8683 37.7974 23.8027 37.8829 23.8027H37.89ZM30.6452 30.5946C30.5668 30.7258 30.5027 30.9517 30.5027 31.0902C30.5027 31.2359 30.5668 31.4546 30.6594 31.6003C30.752 31.7388 30.9372 31.9137 31.0726 31.9865C31.2436 32.074 31.4074 32.1031 31.6069 32.0813C31.7636 32.0594 31.9631 31.9865 32.0486 31.9282C32.1412 31.8699 32.2765 31.7096 32.3549 31.5784C32.4332 31.4546 32.4974 31.2286 32.4974 31.0902C32.4974 30.9517 32.4332 30.7258 32.3549 30.5946C32.2765 30.4707 32.1055 30.2958 31.9773 30.2157C31.8562 30.1355 31.6354 30.0699 31.5 30.0699C31.3647 30.0699 31.1438 30.1355 31.0156 30.2157C30.8945 30.2958 30.7235 30.4707 30.6452 30.5946ZM22.2178 30.3687C22.6238 30.3614 22.6879 30.3833 22.8803 30.5801C23.037 30.7404 23.094 30.8643 23.094 31.0683C23.1011 31.2651 23.0441 31.4035 22.9159 31.542C22.8162 31.6586 22.6523 31.7679 22.5383 31.7898C22.4315 31.8189 22.1964 31.8262 22.0112 31.8116C21.7832 31.7898 21.6265 31.7242 21.4983 31.6003C21.3985 31.4983 21.2988 31.3307 21.2774 31.2141C21.2561 31.1048 21.2917 30.908 21.3629 30.7695C21.4341 30.6384 21.5552 30.4926 21.6336 30.4489C21.712 30.4052 21.9756 30.3687 22.2178 30.3687ZM40.882 30.376C41.2596 30.3979 41.3593 30.427 41.5232 30.6019C41.6728 30.755 41.7226 30.8716 41.7226 31.0975C41.7226 31.338 41.6799 31.4327 41.4875 31.6076C41.2881 31.7971 41.2097 31.8189 40.7965 31.8189C40.3762 31.8189 40.3121 31.7971 40.1198 31.6003C39.9631 31.44 39.9061 31.3161 39.9061 31.1266C39.9061 30.9882 39.9346 30.806 39.9773 30.7258C40.0201 30.6456 40.134 30.529 40.2409 30.4707C40.3762 30.3979 40.59 30.3687 40.882 30.376ZM31.4573 39.6894C31.5998 39.6894 31.7779 39.7186 31.8562 39.7623C31.9346 39.806 32.0486 39.9372 32.1055 40.0538C32.1625 40.1704 32.2124 40.4182 32.2124 40.6004C32.2124 40.7825 32.1839 41.0085 32.1412 41.1105C32.0984 41.2125 31.9631 41.3583 31.842 41.4384C31.6852 41.5404 31.5356 41.5769 31.3932 41.5477C31.2721 41.5259 31.094 41.4166 30.9871 41.2927C30.809 41.0959 30.7877 41.023 30.7948 40.5931C30.7948 40.1704 30.8233 40.0902 31.0014 39.9008C31.151 39.7477 31.2721 39.6894 31.4573 39.6894ZM22.3389 45.6652C22.4386 45.6652 22.6167 45.7162 22.7378 45.7745C22.8589 45.8328 22.98 45.9494 23.0227 46.0295C23.0655 46.1097 23.094 46.2919 23.094 46.4303C23.094 46.6125 23.037 46.7437 22.8874 46.904C22.7449 47.0498 22.6096 47.1227 22.46 47.1227C22.3389 47.1227 22.1536 47.0789 22.0539 47.0279C21.9471 46.9842 21.8188 46.853 21.769 46.7364C21.712 46.6271 21.6692 46.4522 21.6764 46.3502C21.6835 46.2409 21.7832 46.0514 21.9186 45.9129C22.0682 45.7599 22.2249 45.6652 22.3389 45.6652Z" fill="white"/>
</svg>
