<svg width="24" height="22" viewBox="0 0 24 22" fill="none" xmlns="http://www.w3.org/2000/svg">
<path fill-rule="evenodd" clip-rule="evenodd" d="M15.6094 0.000815088C16.0406 0.00511633 16.3219 0.0352251 16.5 0.0825388C16.6406 0.12125 16.9031 0.220179 17.0859 0.301902C17.2687 0.379325 17.5453 0.53417 17.7094 0.646002C17.8687 0.753533 18.1172 0.972897 18.2625 1.13204C18.4031 1.29549 18.6047 1.57937 18.7031 1.76863C18.8016 1.95788 18.9047 2.19445 18.9844 2.47833H21.1781C23.3578 2.47833 23.3672 2.47833 23.5781 2.57296C23.7141 2.63748 23.8266 2.73211 23.8969 2.84394C23.9812 2.98158 24 3.059 23.9813 3.23105C23.9719 3.35149 23.9203 3.49343 23.8688 3.55364C23.8219 3.61386 23.7094 3.70419 23.4609 3.85903L18.9844 3.85473L18.9562 3.97086C18.9422 4.03968 18.8766 4.21604 18.8109 4.37088C18.7453 4.52573 18.6 4.7752 18.4922 4.93004C18.3797 5.08489 18.1359 5.34726 17.9437 5.51071C17.7281 5.69566 17.4516 5.88062 17.2219 5.99245C17.0203 6.09138 16.7062 6.20751 16.5234 6.25483C16.3406 6.30214 16.0359 6.35375 15.8438 6.37096C15.6281 6.38816 15.3469 6.37956 15.1172 6.34945C14.9109 6.31934 14.5828 6.24622 14.3906 6.1817C14.1984 6.11719 13.8844 5.97525 13.6969 5.86341C13.5141 5.75158 13.2281 5.54082 13.0734 5.39028C12.9141 5.24403 12.6891 4.97736 12.5766 4.801C12.4641 4.62465 12.3234 4.33647 12.1641 3.85473L0.539062 3.85903L0.375 3.7558C0.285937 3.70419 0.164062 3.59236 0.103125 3.51063C0.0375 3.416 0 3.29557 0 3.18804C0 3.09341 0.046875 2.93857 0.107812 2.84394C0.178125 2.7278 0.28125 2.63748 0.632812 2.47833H12.1875L12.2297 2.29338C12.2578 2.19445 12.375 1.92777 12.4969 1.70411C12.6844 1.36861 12.7922 1.23097 13.125 0.929884C13.3828 0.693316 13.6406 0.508362 13.8516 0.400831C14.0344 0.310505 14.2969 0.202974 14.4375 0.159961C14.5781 0.116949 14.7609 0.0610325 14.8359 0.0352251C14.9109 0.00941758 15.2625 -0.00348616 15.6094 0.000815088ZM14.7188 1.54496C14.5781 1.60518 14.3766 1.72131 14.2781 1.79874C14.175 1.87616 14.0156 2.04821 13.9219 2.17725C13.8281 2.30628 13.7156 2.53855 13.6688 2.69339C13.6031 2.90846 13.5891 3.0504 13.6125 3.31708C13.6312 3.57515 13.6734 3.72999 13.7812 3.92785C13.8562 4.0784 14.0344 4.30636 14.1703 4.4397C14.3156 4.58164 14.5266 4.72788 14.6953 4.80531C14.85 4.87413 15.1219 4.95585 15.3047 4.98166C15.5766 5.02037 15.6938 5.01607 15.9844 4.96015C16.2188 4.9114 16.4297 4.83255 16.6172 4.72358C16.7719 4.63326 16.9781 4.47411 17.0812 4.36658C17.1797 4.26335 17.3109 4.0784 17.3719 3.96226C17.4328 3.84183 17.5078 3.62246 17.5406 3.46762C17.5828 3.25256 17.5828 3.12352 17.5406 2.89555C17.5078 2.73641 17.4281 2.50414 17.3625 2.38371C17.2922 2.25897 17.1703 2.08262 17.0906 1.99229C17.0109 1.90197 16.8375 1.76002 16.7109 1.6783C16.5797 1.59658 16.3453 1.49335 16.1813 1.44603C15.9984 1.39012 15.7734 1.36001 15.5719 1.36431C15.3984 1.36861 15.1922 1.38151 15.1172 1.39872C15.0422 1.41592 14.8594 1.48044 14.7188 1.54496ZM8.41406 7.81618C8.71875 7.81188 9.05625 7.84199 9.23438 7.8807C9.40312 7.91511 9.73125 8.02694 9.96094 8.13017C10.2844 8.27211 10.4766 8.39685 10.7766 8.65492C11.0344 8.87859 11.2453 9.11515 11.3953 9.33882C11.5219 9.52807 11.6719 9.82486 11.8359 10.3066L23.5266 10.3281L23.6578 10.4184C23.7281 10.47 23.8312 10.5647 23.8828 10.6249C23.9531 10.7109 23.9766 10.8098 23.9766 10.9948C23.9766 11.1841 23.9531 11.2744 23.8781 11.369C23.8219 11.4335 23.7188 11.5282 23.6531 11.5755C23.5266 11.6615 23.4422 11.6615 11.8359 11.683L11.7281 11.997C11.6719 12.1647 11.5359 12.44 11.4281 12.6078C11.3156 12.7841 11.0672 13.0637 10.8328 13.2745C10.5 13.5798 10.3547 13.6788 9.98438 13.8422C9.74063 13.9541 9.38906 14.0745 9.21094 14.1132C8.9625 14.1691 8.7375 14.182 8.29688 14.1691C7.79063 14.1519 7.65469 14.1304 7.28906 14.0143C7.05937 13.9369 6.75469 13.8121 6.61875 13.739C6.47812 13.6616 6.23906 13.4895 6.08438 13.3605C5.925 13.2314 5.70937 13.0078 5.60156 12.8658C5.48906 12.7239 5.34844 12.5088 5.28281 12.3927C5.21719 12.2723 5.13281 12.0658 5.01562 11.683L2.74687 11.6701C0.557812 11.6615 0.46875 11.6572 0.346875 11.5755C0.28125 11.5282 0.178125 11.4335 0.121875 11.369C0.046875 11.2744 0.0234375 11.1841 0.0234375 10.9948C0.0234375 10.8098 0.046875 10.7109 0.117188 10.6249C0.16875 10.5647 0.271875 10.47 0.342188 10.4184C0.473438 10.3281 0.515625 10.3281 4.99219 10.3066L5.08125 10.0571C5.12813 9.92379 5.23125 9.69582 5.31094 9.55388C5.38594 9.41194 5.54063 9.18828 5.64844 9.05924C5.75625 8.9302 5.93906 8.74525 6.05156 8.65062C6.16406 8.55169 6.36094 8.40975 6.49219 8.32803C6.61875 8.2506 6.84375 8.13447 6.98438 8.07855C7.125 8.02264 7.3875 7.94091 7.57031 7.8979C7.79063 7.84199 8.06719 7.81618 8.41406 7.81618ZM7.24688 9.52377C7.14844 9.58829 6.99375 9.71733 6.90469 9.81196C6.81563 9.90658 6.69375 10.0786 6.62812 10.1991C6.56719 10.3152 6.49219 10.5389 6.45938 10.6937C6.41719 10.9045 6.41719 11.0464 6.45938 11.2744C6.4875 11.4421 6.57187 11.683 6.64219 11.812C6.7125 11.9411 6.88125 12.1518 7.01719 12.2723C7.1625 12.4056 7.39687 12.5562 7.57969 12.6379C7.85625 12.7583 7.95937 12.7798 8.34375 12.7927C8.71875 12.8056 8.83594 12.7927 9.07031 12.7153C9.225 12.6594 9.43594 12.5648 9.53906 12.5002C9.64219 12.4357 9.80625 12.3024 9.9 12.2034C9.99844 12.1088 10.125 11.9454 10.1812 11.8421C10.2328 11.7432 10.3078 11.5626 10.3406 11.4464C10.3781 11.326 10.4062 11.1238 10.4062 10.9948C10.4062 10.8658 10.3781 10.6593 10.3406 10.5432C10.3078 10.4227 10.2328 10.2464 10.1812 10.1432C10.125 10.0442 9.99844 9.88078 9.9 9.78615C9.80625 9.68722 9.63281 9.54958 9.51562 9.47646C9.39844 9.40334 9.1875 9.30871 9.04688 9.2657C8.87344 9.21408 8.65781 9.18828 8.39062 9.18828C8.07656 9.18828 7.93125 9.21408 7.71094 9.29581C7.55625 9.35602 7.34531 9.45925 7.24688 9.52377ZM15.7266 15.6186C15.9563 15.6315 16.3078 15.6789 16.5 15.7305C16.6922 15.7778 17.0203 15.8982 17.2266 15.9971C17.5125 16.1305 17.7047 16.2681 18.0234 16.5649C18.3469 16.8574 18.4969 17.0337 18.6422 17.2961C18.7453 17.4854 18.8719 17.7521 19.0078 18.1349L23.4609 18.1306L23.625 18.2295C23.7141 18.2854 23.8359 18.3972 23.8922 18.479C23.9625 18.5779 24 18.6897 24 18.8016C24 18.8962 23.9531 19.051 23.8922 19.1457C23.8219 19.2618 23.7188 19.3521 23.5781 19.4166C23.3672 19.5113 23.3578 19.5113 18.9844 19.5113L18.9094 19.7607C18.8672 19.8941 18.7641 20.1306 18.675 20.2855C18.5906 20.4403 18.4031 20.6941 18.2578 20.8576C18.1172 21.0167 17.8688 21.2361 17.7047 21.3436C17.5453 21.4554 17.2687 21.6103 17.0859 21.6877C16.9031 21.7694 16.6406 21.8683 16.5 21.9071C16.3406 21.9501 16.0219 21.9845 15.6562 21.9974C15.2906 22.006 15 21.9931 14.8828 21.963C14.7797 21.9329 14.5781 21.8769 14.4375 21.8296C14.2969 21.7866 14.0344 21.6791 13.8516 21.5888C13.6406 21.4855 13.3781 21.2963 13.1203 21.0597C12.7875 20.7586 12.6797 20.6253 12.4969 20.2855C12.375 20.0618 12.2578 19.7951 12.1875 19.5113H0.632812L0.421875 19.4166C0.285937 19.3521 0.173438 19.2575 0.103125 19.1457C0.01875 19.008 0 18.9306 0.01875 18.7585C0.028125 18.6381 0.0796875 18.4962 0.13125 18.436C0.178125 18.3757 0.290625 18.2854 0.539062 18.1306L12.1641 18.1349L12.2672 17.8209C12.3234 17.6531 12.4641 17.3649 12.5766 17.1886C12.6891 17.0122 12.9141 16.7456 13.0734 16.5993C13.2281 16.4488 13.5 16.2423 13.6734 16.1391C13.8516 16.0316 14.1375 15.8939 14.3203 15.8337C14.5031 15.7692 14.7937 15.6918 14.9766 15.6573C15.1781 15.6229 15.4688 15.6057 15.7266 15.6186ZM14.6953 17.1843C14.5266 17.2617 14.3156 17.4037 14.1656 17.5499C14.0344 17.6832 13.8562 17.9112 13.7812 18.0617C13.6734 18.2596 13.6312 18.4144 13.6125 18.6725C13.5891 18.9392 13.6031 19.0811 13.6688 19.2962C13.7156 19.451 13.8281 19.6833 13.9219 19.8124C14.0156 19.9414 14.175 20.1134 14.2781 20.1909C14.3766 20.2683 14.5969 20.393 14.7656 20.4661C15 20.5694 15.1547 20.6038 15.4453 20.621C15.7219 20.6339 15.9 20.621 16.125 20.5608C16.2938 20.5178 16.5469 20.4102 16.6875 20.3242C16.8281 20.2339 17.0109 20.0919 17.0906 19.9973C17.1703 19.907 17.2922 19.7306 17.3625 19.6102C17.4281 19.4855 17.5078 19.2532 17.5406 19.094C17.5828 18.8661 17.5828 18.737 17.5406 18.522C17.5078 18.3671 17.4328 18.1478 17.3719 18.0273C17.3109 17.9112 17.1797 17.7262 17.0812 17.623C16.9781 17.5155 16.7719 17.3563 16.6172 17.266C16.4438 17.1628 16.2141 17.0768 16.0172 17.038C15.8438 17.0036 15.6328 16.9735 15.5484 16.9778C15.4688 16.9821 15.3047 16.9993 15.1875 17.0208C15.0703 17.0424 14.85 17.1155 14.6953 17.1843Z" fill="white"/>
</svg>
