<svg width="63" height="63" viewBox="0 0 63 63" fill="none" xmlns="http://www.w3.org/2000/svg">
<circle cx="31.5" cy="31.5" r="31.5" fill="#EA5544"/>
<path fill-rule="evenodd" clip-rule="evenodd" d="M11.8045 11C11.9607 11 12.156 11.0393 12.2263 11.0785C12.3044 11.1256 16.0381 12.5388 28.6919 17.265L34.3079 21.6065C37.3933 24.001 40.0256 26.0815 40.1584 26.2306C40.2912 26.3798 40.4708 26.6624 40.5567 26.8587C40.6817 27.1335 40.7208 27.3768 40.7208 27.9185C40.7208 28.5231 40.6895 28.6879 40.5177 29.0569C40.4083 29.2924 40.174 29.6222 40.01 29.787C39.8381 29.9598 39.5647 30.1639 39.3929 30.2581C39.2054 30.3523 38.8617 30.4308 38.5337 30.4544C38.1509 30.4858 37.8619 30.4544 37.5729 30.368C37.3542 30.2895 36.2529 29.685 35.1359 29.0177C34.0189 28.3503 33.0894 27.8008 33.066 27.8008C33.0426 27.8008 33.0816 27.9892 33.1441 28.2169C33.2066 28.4367 33.2613 28.8371 33.2613 29.0962C33.2613 29.3552 33.2066 29.7242 33.1441 29.9205C33.0738 30.1168 32.902 30.423 32.7692 30.6035C32.6286 30.7763 32.363 31.0353 32.1677 31.1609C31.9725 31.2944 31.6756 31.4436 31.5038 31.4985C31.332 31.5535 30.9649 31.6006 30.6837 31.5927C30.3087 31.5927 30.051 31.5378 29.7073 31.3886C29.4339 31.263 29.0824 31.0196 28.8715 30.7998C28.6684 30.5957 28.4341 30.2738 28.356 30.0775C28.2701 29.8813 27.9108 28.4681 27.5515 26.9372C27.2 25.4063 26.9031 24.1423 26.9031 24.1266C26.8953 24.1187 26.247 23.9853 25.4503 23.8361C24.6536 23.6869 23.9506 23.5692 23.8803 23.577C23.7709 23.5927 23.8881 23.8989 24.4661 25.0922C25.1691 26.5682 25.1769 26.5918 25.2004 27.2512C25.2238 27.8008 25.2004 28.0049 25.0519 28.3896C24.9348 28.6879 24.7239 29.0177 24.4661 29.2924C24.2005 29.5829 23.9037 29.8027 23.5679 29.9519C23.1539 30.1482 22.9586 30.1874 22.4353 30.1874C21.8651 30.1953 21.7557 30.1717 21.2246 29.9048C20.67 29.63 20.5294 29.4887 17.944 26.7252C15.4444 24.0559 15.1867 23.8047 14.5462 23.4122C14.1088 23.1374 13.6011 22.737 13.1793 22.3131C12.7809 21.9048 12.3513 21.371 12.1092 20.9706C11.8826 20.6016 11.5936 20.0128 11.4687 19.6595C11.3359 19.2983 11.1797 18.7017 11.1172 18.3248C11.0234 17.791 11 16.9588 11 14.6349C11 12.578 11.0312 11.5731 11.0859 11.4553C11.1328 11.3533 11.25 11.212 11.3437 11.1413C11.4296 11.0628 11.6405 11 11.7967 11L11.8045 11ZM12.7575 18.5761C12.8356 18.8351 13.0074 19.2983 13.1558 19.5967C13.2964 19.9028 13.6089 20.3974 13.8432 20.6958C14.0775 21.002 14.4368 21.3867 14.6477 21.5594C14.8586 21.7321 15.2804 22.0147 15.585 22.1874C16.0537 22.4544 16.3818 22.7605 17.6471 24.1109C18.4751 24.998 19.7405 26.3405 20.4591 27.0942C21.5917 28.2875 21.8026 28.4838 22.1072 28.5623C22.3493 28.633 22.529 28.6408 22.7243 28.5859C22.8727 28.5388 23.0758 28.4524 23.1695 28.3896C23.271 28.3268 23.4195 28.1541 23.5054 28.0206C23.6069 27.8557 23.6616 27.6202 23.6616 27.3925C23.6616 27.0707 23.5132 26.7017 22.6071 24.841C22.0291 23.6398 21.5526 22.58 21.5526 22.4858C21.5526 22.3837 21.5995 22.211 21.662 22.0932C21.7167 21.9676 21.8885 21.8263 22.0291 21.7635C22.279 21.6536 22.4821 21.685 24.9113 22.1325L27.528 22.6192C29.5276 23.8204 31.8631 25.2179 34.0111 26.5054C36.9246 28.2561 37.9947 28.8528 38.2291 28.8842C38.4009 28.9078 38.6196 28.8842 38.7133 28.8292C38.8149 28.7821 38.9633 28.6251 39.0492 28.4917C39.1351 28.3503 39.2054 28.0991 39.2054 27.9421C39.2054 27.7772 39.1586 27.5496 39.1039 27.4396C39.0492 27.314 36.7606 25.4926 33.4644 22.9411L27.9186 18.6467C16.2334 14.2816 12.7809 13.002 12.7106 12.9784C12.5934 12.947 12.5856 13.1354 12.6012 15.5221C12.6247 17.6889 12.6481 18.1835 12.7575 18.5761ZM29.2855 27.4318C29.5433 28.5152 29.8088 29.4887 29.8713 29.5908C29.9338 29.685 30.0822 29.8106 30.1994 29.8734C30.3244 29.9362 30.504 29.9912 30.6134 29.999C30.7227 30.0069 30.8946 30.0147 30.9883 30.0069C31.0898 29.999 31.2929 29.8734 31.4413 29.7242C31.6444 29.5123 31.7069 29.3867 31.7069 29.159C31.7069 28.9941 31.5663 28.3503 31.3945 27.7223C31.2226 27.0942 31.0352 26.5604 30.9883 26.5211C30.9336 26.4897 30.4415 26.1992 29.8869 25.8773C29.3402 25.5554 28.8793 25.2885 28.8559 25.2885C28.8325 25.2885 28.8168 25.3278 28.8168 25.367C28.8168 25.4141 29.0277 26.3405 29.2855 27.4318ZM50.3361 26.6624C50.461 26.686 50.6641 26.8037 50.7813 26.9372C50.9141 27.0785 51 27.2591 51 27.3925C51 27.5103 50.9297 27.7223 50.8438 27.8636C50.7266 28.052 50.5938 28.1384 50.2736 28.2326C50.0549 28.2954 49.2347 28.5231 48.4614 28.7429C47.6881 28.9549 46.9617 29.1354 46.8368 29.1354C46.7196 29.1354 46.5165 29.0491 46.3915 28.9392C46.2587 28.8292 46.1416 28.6408 46.1181 28.5074C46.0947 28.3817 46.126 28.1776 46.1884 28.0599C46.2431 27.9342 46.3447 27.8008 46.3993 27.7458C46.4618 27.6987 47.3132 27.4239 48.3052 27.1413C49.4222 26.8273 50.1877 26.6467 50.3361 26.6624ZM42.1033 20.3425C42.3142 20.3425 42.4704 20.3974 42.8375 20.7193L42.8766 24.8175L42.611 25.0922C42.4314 25.2807 42.2751 25.367 42.1267 25.367C42.0018 25.367 41.7831 25.2964 41.6425 25.21C41.5097 25.1237 41.3769 24.9745 41.3534 24.8803C41.33 24.7782 41.3144 23.8047 41.3534 20.7193L41.5722 20.5309C41.7284 20.3974 41.8846 20.3425 42.1033 20.3425ZM46.5634 23.0118C46.7899 23.0118 46.9149 23.0667 47.0945 23.2473C47.2664 23.42 47.3288 23.5535 47.3288 23.7576C47.3288 23.9853 47.1648 24.2522 46.2822 25.4298C45.6339 26.2856 45.1496 26.8587 45.0168 26.9215C44.8918 26.9843 44.6809 27.0079 44.556 26.9843C44.4232 26.9607 44.2357 26.8508 44.1263 26.7331C43.9857 26.5918 43.9311 26.4426 43.9311 26.2306C43.9311 25.9715 44.0639 25.7674 44.9777 24.5505C45.5479 23.789 46.0791 23.1295 46.1494 23.0903C46.2197 23.051 46.4071 23.0118 46.5634 23.0118ZM40.7832 31.9225L41.0098 32.1815C41.1347 32.315 41.2363 32.5191 41.2363 32.629C41.2363 32.739 41.1894 32.9195 41.1347 33.0294C41.0879 33.1472 40.9473 33.2885 40.8223 33.3435C40.7051 33.4063 40.4005 33.4534 39.6741 33.4534V34.7488L40.9395 34.8037C41.8377 34.8351 42.4079 34.9058 42.8766 35.0236C43.2437 35.1099 43.8061 35.2983 44.1263 35.4239C44.4466 35.5574 44.9777 35.8243 45.298 36.0128C45.6182 36.209 46.1494 36.5859 46.4618 36.8528C46.7821 37.1197 47.2507 37.5908 47.5085 37.8891C47.7584 38.1953 48.1178 38.6899 48.313 38.9882C48.5005 39.2944 48.7739 39.8361 48.9223 40.2051C49.0707 40.5741 49.2738 41.1551 49.3597 41.5005C49.4456 41.8459 49.5393 42.5211 49.5706 42.9921C49.6096 43.7615 49.6018 43.8793 49.4691 44.0756C49.3909 44.1933 49.2113 44.3268 49.0863 44.3739C48.9535 44.4132 47.9303 44.4446 44.7512 44.4446V46.0147H46.1572C47.3601 46.0147 47.6257 46.0383 47.9693 46.1639C48.1959 46.2502 48.5395 46.4622 48.7348 46.6271C48.9301 46.7998 49.1879 47.1217 49.3206 47.3572C49.5315 47.7419 49.555 47.844 49.555 48.527C49.555 49.1472 49.5237 49.3278 49.3753 49.6104C49.2816 49.791 49.0707 50.0815 48.9067 50.262C48.7504 50.4347 48.4224 50.6781 47.7584 51H30.0275L29.5979 50.788C29.3402 50.6624 29.0199 50.419 28.7934 50.16C28.5669 49.9087 28.3716 49.5868 28.2935 49.3513C28.2232 49.1394 28.1685 48.7625 28.1685 48.527C28.1685 48.2915 28.2232 47.9225 28.2935 47.7026C28.3716 47.4671 28.5669 47.1452 28.7934 46.8862C28.9965 46.6585 29.3402 46.3759 29.5589 46.2581C29.9338 46.0618 29.9963 46.054 33.0348 46.0147V44.4446H30.9258C29.2074 44.4446 28.77 44.421 28.5825 44.3268C28.4497 44.264 28.2935 44.0913 28.231 43.9342C28.1373 43.7066 28.1295 43.5182 28.192 42.8587C28.231 42.4112 28.3404 41.7753 28.4263 41.4455C28.5122 41.1079 28.6528 40.6447 28.7465 40.4249C28.8325 40.1973 29.0434 39.7419 29.223 39.42C29.3948 39.0981 29.6995 38.6035 29.9104 38.3209C30.1135 38.0383 30.5509 37.5515 30.8789 37.2453C31.207 36.9313 31.7616 36.4838 32.1131 36.2483C32.4724 36.0206 32.902 35.7537 33.0738 35.6673C33.2457 35.581 33.6518 35.4161 33.9721 35.2983C34.2923 35.1806 34.9016 35.0236 35.3156 34.9372C35.8311 34.8351 36.4169 34.788 38.1119 34.788V33.4534H37.5651C37.0652 33.4534 37.0027 33.4377 36.784 33.2179C36.6044 33.0373 36.5497 32.9117 36.5497 32.6919C36.5497 32.527 36.6122 32.315 36.6903 32.2287C36.7606 32.1344 36.8934 32.0245 36.9793 31.9696C37.0887 31.9146 37.7135 31.8911 40.7832 31.9225ZM34.9485 36.633C34.6907 36.7036 34.2298 36.8763 33.933 37.0177C33.6284 37.159 33.2066 37.3867 32.9957 37.5358C32.777 37.6771 32.4177 37.9598 32.1834 38.156C31.949 38.3523 31.5507 38.7841 31.2929 39.106C31.0352 39.4279 30.6602 40.0481 30.4493 40.4799C30.2462 40.9117 30.0197 41.4769 29.9572 41.736C29.8947 41.9951 29.8244 42.3562 29.801 42.5446L29.7542 42.8744H48.0318C47.9772 42.5996 47.9069 42.2463 47.8444 41.9166L47.7194 41.3042C44.9074 41.3042 43.9701 41.2807 43.8217 41.2493C43.6733 41.21 43.4702 41.1001 43.3687 40.9902C43.2359 40.8567 43.1812 40.7076 43.189 40.5034C43.189 40.2836 43.2515 40.1423 43.4155 39.9696L43.6421 39.7341C46.2744 39.7341 46.8602 39.7026 46.8602 39.6555C46.8602 39.6163 46.7118 39.3886 46.5321 39.1688C46.3525 38.9411 46.0088 38.5643 45.7667 38.3366C45.5323 38.1089 45.0871 37.7556 44.7903 37.5515C44.4856 37.3553 43.9779 37.0805 43.6577 36.9392C43.3374 36.8057 42.8453 36.633 42.5641 36.5545C42.1189 36.4289 41.6971 36.4053 39.0883 36.3896C37.4558 36.3817 35.9639 36.3974 35.7686 36.4367C35.5733 36.4681 35.2062 36.5545 34.9485 36.633ZM34.597 46.0147H43.189V44.4446H34.597V46.0147ZM29.8244 48.0795C29.7698 48.1737 29.7307 48.3778 29.7385 48.527C29.7385 48.6762 29.7776 48.8803 29.8244 48.9823C29.8713 49.0765 30.0275 49.2257 30.1603 49.3121C30.4103 49.4691 30.5587 49.4691 38.8305 49.4691C46.1416 49.4691 47.2898 49.4534 47.5241 49.3513C47.6803 49.2885 47.8522 49.1315 47.9147 48.998C47.9772 48.8724 48.0318 48.6526 48.0318 48.527C48.0318 48.4014 47.9772 48.1815 47.9147 48.0559C47.8522 47.9303 47.6881 47.7655 47.5632 47.7026C47.3601 47.6006 46.2353 47.5849 38.8696 47.5849C30.5587 47.5849 30.4103 47.5849 30.1603 47.7419C30.0275 47.8283 29.8713 47.9774 29.8244 48.0795ZM40.4318 39.7341C40.6583 39.7262 40.7832 39.7812 40.9395 39.946C41.0644 40.0638 41.1738 40.2522 41.1894 40.3621C41.205 40.472 41.1738 40.6762 41.1113 40.8175C41.041 40.9745 40.9004 41.1079 40.7286 41.1865C40.5255 41.2728 40.3849 41.2885 40.1974 41.2336C40.0646 41.1865 39.885 41.0687 39.8069 40.9588C39.7366 40.841 39.6741 40.629 39.6819 40.472C39.6819 40.2758 39.7522 40.1266 39.9084 39.9617C40.0724 39.789 40.2052 39.7341 40.4318 39.7341Z" fill="white"/>
</svg>
