<svg width="18" height="23" viewBox="0 0 18 23" fill="none" xmlns="http://www.w3.org/2000/svg">
<path d="M1.82935 9.39199C1.82935 14.5904 6.37702 18.8893 8.38994 20.5374C8.67802 20.7733 8.82379 20.8927 9.03872 20.9532C9.20607 21.0003 9.45239 21.0003 9.61974 20.9532C9.83507 20.8926 9.97982 20.7744 10.269 20.5376C12.2819 18.8894 16.8293 14.5909 16.8293 9.39247C16.8293 7.42519 16.0392 5.53826 14.6327 4.14718C13.2261 2.75611 11.3186 1.97461 9.32948 1.97461C7.34034 1.97461 5.43259 2.75622 4.02606 4.1473C2.61953 5.53837 1.82935 7.42472 1.82935 9.39199Z" stroke="white" stroke-width="2.14287" stroke-linecap="round" stroke-linejoin="round"/>
<path d="M7.18652 8.40322C7.18652 9.58669 8.14591 10.5461 9.32939 10.5461C10.5129 10.5461 11.4723 9.58669 11.4723 8.40322C11.4723 7.21974 10.5129 6.26035 9.32939 6.26035C8.14591 6.26035 7.18652 7.21974 7.18652 8.40322Z" stroke="white" stroke-width="2.14287" stroke-linecap="round" stroke-linejoin="round"/>
</svg>
