<svg width="19" height="19" viewBox="0 0 19 19" fill="none" xmlns="http://www.w3.org/2000/svg">
<path d="M7.14105 2.18737C6.85421 1.47024 6.15967 1 5.38731 1H2.78943C1.80115 1 1 1.80098 1 2.78928C1 11.1898 7.81 18 16.2103 18C17.1986 18 17.9996 17.1988 17.9996 16.2105L18 13.6121C18 12.8397 17.5299 12.1453 16.8128 11.8584L14.3229 10.8628C13.6787 10.6051 12.9453 10.7211 12.4123 11.1652L11.7697 11.7012C11.0192 12.3266 9.91498 12.2769 9.2242 11.5861L7.41471 9.77489C6.72393 9.08409 6.67288 7.98071 7.29829 7.23021L7.83413 6.58762C8.27828 6.05463 8.39527 5.32099 8.13761 4.67681L7.14105 2.18737Z" stroke="white" stroke-width="1.61905" stroke-linecap="round" stroke-linejoin="round"/>
</svg>
