<svg width="20" height="21" viewBox="0 0 20 21" fill="none" xmlns="http://www.w3.org/2000/svg">
<path d="M7.50246 2.77821C7.19873 2.0189 6.46332 1.521 5.64551 1.521H2.89474C1.8483 1.521 1 2.36909 1 3.41553C1 12.3102 8.21078 19.521 17.1055 19.521C18.1519 19.521 19 18.6726 19 17.6262L19.0005 14.875C19.0005 14.0571 18.5027 13.3219 17.7434 13.0181L15.1069 11.9639C14.4249 11.6911 13.6483 11.8139 13.0839 12.2842L12.4035 12.8517C11.6089 13.5139 10.4396 13.4612 9.7082 12.7298L7.79222 10.8121C7.06079 10.0806 7.00673 8.91233 7.66895 8.11768L8.23633 7.43729C8.70661 6.87295 8.83049 6.09616 8.55766 5.41409L7.50246 2.77821Z" stroke="#9B9B9B" stroke-width="2" stroke-linecap="round" stroke-linejoin="round"/>
</svg>
