<svg width="125" height="31" viewBox="0 0 125 31" fill="none" xmlns="http://www.w3.org/2000/svg">
<path d="M72.3457 30.1519C74.7406 30.1519 76.7055 29.0315 78.0841 26.9474L78.3422 29.7208H83.0455V0H77.9637V10.7336C76.688 8.80374 74.7932 7.78738 72.57 7.78738C67.66 7.78738 64.2313 11.9404 64.2313 19.125C64.2313 26.2056 67.556 30.1519 72.3457 30.1519ZM103.618 28.2734V24.1215C102.033 25.1893 99.3796 26.1367 96.8983 26.1367C93.1763 26.1367 91.764 24.3797 91.5572 20.7956H103.824V18.0911C103.824 10.6145 100.534 7.78738 95.4509 7.78738C89.2476 7.78738 86.3025 12.5257 86.3025 19.0386C86.3025 26.5152 89.9719 30.1519 96.4848 30.1519C99.7243 30.1519 102.119 29.2897 103.618 28.2734ZM48.8282 14.2827C49.7756 13.1285 51.2581 12.1472 53.1016 12.1472C54.8925 12.1472 55.7032 12.9217 55.7032 14.5421V29.7208H60.785V14.0245C60.785 9.75234 59.0794 7.87383 54.9275 7.87383C51.8948 7.87383 50.1027 8.99416 49.0689 10.0105H48.8119L48.6904 8.21846H43.7266V29.7208H48.8095V14.2839L48.8282 14.2827ZM39.5934 15.0584C39.5934 9.83762 36.9392 7.87383 31.5467 7.87383C28.2044 7.87383 25.5163 9.28738 23.9836 10.389V14.8002C25.6027 13.4731 28.0841 11.9404 30.9614 11.9404C33.3913 11.9404 34.5105 12.8014 34.5105 15.1098V16.4708H33.7009C25.9135 16.4708 22.4497 18.9872 22.4497 23.4836C22.4497 27.6355 25.1027 30.0304 29.0315 30.0304C32.0291 30.0304 33.3048 29.0491 34.2862 28.0152H34.4929C34.528 28.5666 34.6997 29.2897 34.8726 29.7208H39.8341C39.6625 27.9745 39.5764 26.2208 39.5759 24.4661V15.0584H39.5934ZM119.263 29.7208H125L117.987 18.6425L124.053 8.21846H118.97L115.299 14.7138L111.199 8.21846H105.444L111.939 18.5222L105.186 29.7208H110.355L114.679 22.4498L119.263 29.7208ZM73.8457 11.8026C76.5852 11.8026 77.9462 13.9907 77.9462 18.9357C77.9462 23.9322 76.4976 26.1203 73.6214 26.1203C70.8469 26.1203 69.4684 23.9825 69.4684 19.1075C69.4859 14.0257 70.9334 11.8026 73.8457 11.8026ZM95.3644 11.8026C97.8808 11.8026 98.6553 13.9042 98.6553 16.5923V17.0234H91.5572C91.6775 13.5946 92.9182 11.8014 95.3656 11.8014L95.3644 11.8026ZM34.5105 24.5853C33.8726 25.5327 32.667 26.2909 30.8749 26.2909C28.7383 26.2909 27.6705 25.0502 27.6705 23.1717C27.6705 20.6916 29.4275 19.8306 33.7862 19.8306H34.5105V24.5853Z" fill="black"/>
<path d="M14.9206 24.6729V29.7208H9.75234V21.2091L0 0H5.39252L12.9907 16.5923C14.4556 19.7629 14.9206 20.8645 14.9206 24.6729ZM24.6379 0L18.2979 14.3692H13.0432L19.3832 0H24.6379Z" fill="#EA5544"/>
</svg>
