<svg width="144" height="32" viewBox="0 0 144 32" fill="none" xmlns="http://www.w3.org/2000/svg">
<g clip-path="url(#clip0_63_1004)">
<path d="M44.9654 4.99697C44.4373 3.03023 42.8813 1.48111 40.9053 0.955463C37.3237 0.000165939 22.9625 0.000165939 22.9625 0.000165939C22.9625 0.000165939 8.6014 0.000165939 5.01985 0.955463C3.04404 1.48111 1.48776 3.03023 0.959699 4.99697C0 8.56205 0 16 0 16C0 16 0 23.4383 0.959699 27.0032C1.48776 28.9698 3.04404 30.5191 5.01985 31.0445C8.6014 32.0001 22.9625 32.0001 22.9625 32.0001C22.9625 32.0001 37.3237 32.0001 40.9053 31.0445C42.8813 30.5191 44.4373 28.9698 44.9654 27.0032C45.9252 23.4383 45.9252 16 45.9252 16C45.9252 16 45.9252 8.56205 44.9654 4.99697Z" fill="#ED1D24"/>
<path d="M18.3701 22.8572L30.3015 16.0002L18.3701 9.14296V22.8572Z" fill="white"/>
<path d="M71.7508 25.9731C72.0022 25.3198 72.1284 24.2519 72.1284 22.7699V16.5255C72.1284 15.0872 72.0022 14.0359 71.7508 13.371C71.499 12.7064 71.0556 12.3738 70.4209 12.3738C69.8077 12.3738 69.3749 12.7064 69.1235 13.371C68.8717 14.0359 68.7458 15.0872 68.7458 16.5255V22.7699C68.7458 24.2519 68.866 25.3198 69.1072 25.9731C69.3476 26.6272 69.7854 26.9538 70.4209 26.9538C71.0556 26.9538 71.499 26.6272 71.7508 25.9731ZM66.6606 29.1116C65.7514 28.5021 65.1054 27.5537 64.7228 26.2674C64.3395 24.982 64.1482 23.271 64.1482 21.1351V18.2256C64.1482 16.0681 64.3667 14.3352 64.8048 13.0277C65.2426 11.7201 65.9265 10.7669 66.8575 10.1673C67.7879 9.5682 69.0085 9.26833 70.5195 9.26833C72.0082 9.26833 73.2013 9.57366 74.0991 10.1836C74.9966 10.7938 75.6536 11.7476 76.0698 13.0441C76.4853 14.341 76.6936 16.0681 76.6936 18.2256V21.1351C76.6936 23.271 76.4909 24.9876 76.0861 26.284C75.6808 27.5808 75.0238 28.529 74.1154 29.128C73.2066 29.7272 71.9753 30.0271 70.4209 30.0271C68.8222 30.0271 67.5686 29.7217 66.6606 29.1116Z" fill="#252323"/>
<path d="M136.99 12.7485C136.76 13.0319 136.606 13.495 136.53 14.1377C136.453 14.7807 136.416 15.7559 136.416 17.0635V18.5019H139.732V17.0635C139.732 15.7779 139.688 14.8026 139.601 14.1377C139.513 13.4731 139.355 13.0048 139.125 12.7321C138.895 12.4596 138.539 12.3234 138.057 12.3234C137.575 12.3234 137.22 12.4654 136.99 12.7485ZM136.416 21.1827V22.1962C136.416 23.4824 136.453 24.4467 136.53 25.0893C136.606 25.7323 136.765 26.201 137.006 26.4954C137.247 26.7892 137.619 26.9366 138.123 26.9366C138.801 26.9366 139.267 26.675 139.519 26.1517C139.77 25.6287 139.907 24.7571 139.929 23.5363L143.837 23.7653C143.859 23.9402 143.87 24.1799 143.87 24.4844C143.87 26.3372 143.361 27.7213 142.343 28.6366C141.325 29.5516 139.885 30.0095 138.024 30.0095C135.791 30.0095 134.226 29.3123 133.328 27.9171C132.43 26.5229 131.981 24.3651 131.981 21.4444V17.9462C131.981 14.9386 132.447 12.7433 133.377 11.3588C134.308 9.97505 135.901 9.28304 138.156 9.28304C139.71 9.28304 140.904 9.56643 141.736 10.1329C142.567 10.7 143.153 11.5827 143.493 12.781C143.832 13.9798 144.002 15.6364 144.002 17.7501V21.1827H136.416Z" fill="#252323"/>
<path d="M55.6244 20.8075L50.468 2.27137H54.9674L56.7736 10.6731C57.2337 12.7441 57.5728 14.5093 57.7916 15.9691H57.9232C58.0763 14.9231 58.4158 13.1689 58.9412 10.7059L60.8132 2.27137H65.3126L60.0908 20.8075V29.7001H55.6244V20.8075Z" fill="#252323"/>
<path d="M91.3272 9.66037V29.7001H87.7801L87.3859 27.2483H87.2876C86.324 29.1006 84.8787 30.0267 82.9523 30.0267C81.6167 30.0267 80.6315 29.5913 79.9965 28.7192C79.3614 27.848 79.0442 26.4854 79.0442 24.6329V9.66037H83.5764V24.3713C83.5764 25.2654 83.6751 25.9026 83.872 26.2837C84.069 26.6654 84.3975 26.8558 84.8572 26.8558C85.2515 26.8558 85.6291 26.7363 85.9902 26.496C86.3515 26.2564 86.6196 25.9518 86.795 25.5811V9.66037H91.3272Z" fill="#252323"/>
<path d="M114.575 9.66037V29.7001H111.028L110.633 27.2483H110.535C109.571 29.1006 108.126 30.0267 106.2 30.0267C104.864 30.0267 103.879 29.5913 103.244 28.7192C102.609 27.848 102.292 26.4854 102.292 24.6329V9.66037H106.824V24.3713C106.824 25.2654 106.922 25.9026 107.119 26.2837C107.317 26.6654 107.645 26.8558 108.105 26.8558C108.499 26.8558 108.877 26.7363 109.238 26.496C109.599 26.2564 109.867 25.9518 110.043 25.5811V9.66037H114.575Z" fill="#252323"/>
<path d="M103.643 5.90083H99.1434V29.7001H94.7098V5.90083H90.2104V2.27197H103.643V5.90083Z" fill="#252323"/>
<path d="M125.421 21.038C125.421 22.4983 125.36 23.6426 125.239 24.4704C125.119 25.2992 124.917 25.8874 124.632 26.2358C124.347 26.5846 123.964 26.7588 123.483 26.7588C123.11 26.7588 122.765 26.672 122.448 26.4971C122.13 26.323 121.873 26.0616 121.676 25.7125V14.3361C121.829 13.7916 122.092 13.3446 122.464 12.9958C122.837 12.6476 123.241 12.4728 123.679 12.4728C124.139 12.4728 124.495 12.6528 124.747 13.0121C124.998 13.3717 125.174 13.9765 125.272 14.8267C125.371 15.6765 125.421 16.8861 125.421 18.4552V21.038ZM129.575 12.8637C129.301 11.6 128.857 10.6847 128.244 10.1177C127.631 9.55144 126.788 9.26791 125.716 9.26791C124.884 9.26791 124.107 9.50234 123.384 9.97064C122.662 10.4394 122.103 11.0551 121.709 11.8179H121.676L121.676 1.25843H117.308V29.6996H121.052L121.512 27.8039H121.61C121.96 28.4793 122.486 29.0133 123.187 29.4056C123.887 29.7978 124.665 29.994 125.519 29.994C127.051 29.994 128.179 29.291 128.901 27.8854C129.624 26.4795 129.985 24.2842 129.985 21.2981V18.1271C129.985 15.8826 129.848 14.1281 129.575 12.8637Z" fill="#252323"/>
</g>
<defs>
<clipPath id="clip0_63_1004">
<rect width="144" height="32" fill="white"/>
</clipPath>
</defs>
</svg>
