<svg width="30" height="21" viewBox="0 0 30 21" fill="none" xmlns="http://www.w3.org/2000/svg">
<path d="M29.373 3.2639C29.028 1.97915 28.0116 0.967211 26.7208 0.62384C24.3812 -0.000192642 14.9999 -0.000192642 14.9999 -0.000192642C14.9999 -0.000192642 5.61874 -0.000192642 3.27915 0.62384C1.98848 0.967211 0.971861 1.97915 0.626909 3.2639C0 5.59273 0 10.4515 0 10.4515C0 10.4515 0 15.3104 0.626909 17.6392C0.971861 18.9238 1.98848 19.9358 3.27915 20.2791C5.61874 20.9033 14.9999 20.9033 14.9999 20.9033C14.9999 20.9033 24.3812 20.9033 26.7208 20.2791C28.0116 19.9358 29.028 18.9238 29.373 17.6392C30 15.3104 30 10.4515 30 10.4515C30 10.4515 30 5.59273 29.373 3.2639Z" fill="#ED1D24"/>
<path d="M12 14.9312L19.794 10.4519L12 5.9725V14.9312Z" fill="white"/>
</svg>
